<mxfile host="Electron" modified="2023-04-23T19:01:06.893Z" agent="Mozilla/5.0 (Macintosh; Intel Mac OS X 10_15_7) AppleWebKit/537.36 (KHTML, like Gecko) draw.io/21.1.2 Chrome/106.0.5249.199 Electron/21.4.3 Safari/537.36" etag="N2L20qQvWmnRIj1RsIYi" version="21.1.2" type="device">
  <diagram name="Page-1" id="b520641d-4fe3-3701-9064-5fc419738815">
    <mxGraphModel dx="5380" dy="2247" grid="1" gridSize="10" guides="1" tooltips="1" connect="1" arrows="1" fold="1" page="1" pageScale="1" pageWidth="1100" pageHeight="850" background="none" math="0" shadow="0">
      <root>
        <mxCell id="0" />
        <mxCell id="1" parent="0" />
        <mxCell id="dTDsVJl3CDrMaRGRxost-16" style="edgeStyle=orthogonalEdgeStyle;rounded=0;orthogonalLoop=1;jettySize=auto;html=1;entryX=1;entryY=0.5;entryDx=0;entryDy=0;" edge="1" parent="1" source="21ea969265ad0168-6" target="dTDsVJl3CDrMaRGRxost-5">
          <mxGeometry relative="1" as="geometry">
            <Array as="points">
              <mxPoint x="-660" y="1050" />
              <mxPoint x="-660" y="1050" />
            </Array>
          </mxGeometry>
        </mxCell>
        <mxCell id="dTDsVJl3CDrMaRGRxost-8" style="edgeStyle=orthogonalEdgeStyle;rounded=0;orthogonalLoop=1;jettySize=auto;html=1;entryX=0.216;entryY=0.01;entryDx=0;entryDy=0;entryPerimeter=0;" edge="1" parent="1" source="dTDsVJl3CDrMaRGRxost-5" target="21ea969265ad0168-6">
          <mxGeometry relative="1" as="geometry">
            <Array as="points">
              <mxPoint x="-910" y="890" />
              <mxPoint x="-575" y="890" />
            </Array>
          </mxGeometry>
        </mxCell>
        <mxCell id="dTDsVJl3CDrMaRGRxost-10" style="edgeStyle=orthogonalEdgeStyle;rounded=0;orthogonalLoop=1;jettySize=auto;html=1;entryX=0.001;entryY=0.121;entryDx=0;entryDy=0;entryPerimeter=0;" edge="1" parent="1" source="dTDsVJl3CDrMaRGRxost-5" target="21ea969265ad0168-6">
          <mxGeometry relative="1" as="geometry">
            <Array as="points">
              <mxPoint x="-900" y="920" />
              <mxPoint x="-610" y="920" />
            </Array>
          </mxGeometry>
        </mxCell>
        <mxCell id="dTDsVJl3CDrMaRGRxost-19" style="edgeStyle=orthogonalEdgeStyle;rounded=0;orthogonalLoop=1;jettySize=auto;html=1;entryX=-0.002;entryY=0.181;entryDx=0;entryDy=0;entryPerimeter=0;" edge="1" parent="1" source="dTDsVJl3CDrMaRGRxost-5" target="dTDsVJl3CDrMaRGRxost-4">
          <mxGeometry relative="1" as="geometry">
            <Array as="points">
              <mxPoint x="-860" y="980" />
              <mxPoint x="-610" y="980" />
            </Array>
          </mxGeometry>
        </mxCell>
        <mxCell id="dTDsVJl3CDrMaRGRxost-22" style="edgeStyle=orthogonalEdgeStyle;rounded=0;orthogonalLoop=1;jettySize=auto;html=1;" edge="1" parent="1" source="21ea969265ad0168-6">
          <mxGeometry relative="1" as="geometry">
            <mxPoint x="-610" y="1100" as="targetPoint" />
            <Array as="points">
              <mxPoint x="-599" y="1100" />
            </Array>
          </mxGeometry>
        </mxCell>
        <mxCell id="dTDsVJl3CDrMaRGRxost-27" style="edgeStyle=orthogonalEdgeStyle;rounded=0;orthogonalLoop=1;jettySize=auto;html=1;" edge="1" parent="1" source="dTDsVJl3CDrMaRGRxost-5">
          <mxGeometry relative="1" as="geometry">
            <mxPoint x="-610" y="1120" as="targetPoint" />
            <Array as="points">
              <mxPoint x="-860" y="1130" />
              <mxPoint x="-610" y="1130" />
            </Array>
          </mxGeometry>
        </mxCell>
        <mxCell id="dTDsVJl3CDrMaRGRxost-33" style="edgeStyle=orthogonalEdgeStyle;rounded=0;orthogonalLoop=1;jettySize=auto;html=1;entryX=-0.002;entryY=0.125;entryDx=0;entryDy=0;entryPerimeter=0;" edge="1" parent="1" source="dTDsVJl3CDrMaRGRxost-5" target="21ea969265ad0168-6">
          <mxGeometry relative="1" as="geometry">
            <Array as="points">
              <mxPoint x="-880" y="950" />
              <mxPoint x="-610" y="950" />
            </Array>
          </mxGeometry>
        </mxCell>
        <mxCell id="dTDsVJl3CDrMaRGRxost-5" value="User" style="rounded=0;whiteSpace=wrap;html=1;fillColor=#dae8fc;strokeColor=#6c8ebf;" vertex="1" parent="1">
          <mxGeometry x="-940" y="1020" width="140" height="60" as="geometry" />
        </mxCell>
        <mxCell id="dTDsVJl3CDrMaRGRxost-13" style="edgeStyle=orthogonalEdgeStyle;rounded=0;orthogonalLoop=1;jettySize=auto;html=1;entryX=0.5;entryY=0;entryDx=0;entryDy=0;" edge="1" parent="1" source="dTDsVJl3CDrMaRGRxost-6" target="21ea969265ad0168-6">
          <mxGeometry relative="1" as="geometry">
            <Array as="points">
              <mxPoint x="-170" y="940" />
              <mxPoint x="-530" y="940" />
            </Array>
          </mxGeometry>
        </mxCell>
        <mxCell id="dTDsVJl3CDrMaRGRxost-15" style="edgeStyle=orthogonalEdgeStyle;rounded=0;orthogonalLoop=1;jettySize=auto;html=1;" edge="1" parent="1" source="dTDsVJl3CDrMaRGRxost-6">
          <mxGeometry relative="1" as="geometry">
            <mxPoint x="-451" y="1000" as="targetPoint" />
            <Array as="points">
              <mxPoint x="-220" y="1000" />
              <mxPoint x="-451" y="1000" />
            </Array>
          </mxGeometry>
        </mxCell>
        <mxCell id="dTDsVJl3CDrMaRGRxost-6" value="admin" style="rounded=0;whiteSpace=wrap;html=1;fillColor=#dae8fc;strokeColor=#6c8ebf;" vertex="1" parent="1">
          <mxGeometry x="-270" y="1020" width="120" height="60" as="geometry" />
        </mxCell>
        <mxCell id="dTDsVJl3CDrMaRGRxost-9" value="User details" style="text;html=1;strokeColor=none;fillColor=none;align=center;verticalAlign=middle;whiteSpace=wrap;rounded=0;" vertex="1" parent="1">
          <mxGeometry x="-835" y="894" width="170" height="30" as="geometry" />
        </mxCell>
        <mxCell id="dTDsVJl3CDrMaRGRxost-11" value="New account" style="text;html=1;strokeColor=none;fillColor=none;align=center;verticalAlign=middle;whiteSpace=wrap;rounded=0;" vertex="1" parent="1">
          <mxGeometry x="-795" y="864" width="100" height="30" as="geometry" />
        </mxCell>
        <mxCell id="dTDsVJl3CDrMaRGRxost-14" value="Bike details" style="text;html=1;strokeColor=none;fillColor=none;align=center;verticalAlign=middle;whiteSpace=wrap;rounded=0;" vertex="1" parent="1">
          <mxGeometry x="-410" y="910" width="100" height="30" as="geometry" />
        </mxCell>
        <mxCell id="dTDsVJl3CDrMaRGRxost-17" value="Helping user" style="text;html=1;strokeColor=none;fillColor=none;align=center;verticalAlign=middle;whiteSpace=wrap;rounded=0;" vertex="1" parent="1">
          <mxGeometry x="-760" y="1025" width="100" height="30" as="geometry" />
        </mxCell>
        <mxCell id="dTDsVJl3CDrMaRGRxost-20" value="Payment details" style="text;html=1;strokeColor=none;fillColor=none;align=center;verticalAlign=middle;whiteSpace=wrap;rounded=0;" vertex="1" parent="1">
          <mxGeometry x="-805" y="954" width="110" height="30" as="geometry" />
        </mxCell>
        <mxCell id="dTDsVJl3CDrMaRGRxost-23" value="" style="edgeStyle=orthogonalEdgeStyle;rounded=0;orthogonalLoop=1;jettySize=auto;html=1;" edge="1" parent="1" source="dTDsVJl3CDrMaRGRxost-5" target="21ea969265ad0168-6">
          <mxGeometry relative="1" as="geometry">
            <mxPoint x="-610" y="1100" as="targetPoint" />
            <mxPoint x="-820" y="1080" as="sourcePoint" />
            <Array as="points">
              <mxPoint x="-820" y="1100" />
            </Array>
          </mxGeometry>
        </mxCell>
        <mxCell id="dTDsVJl3CDrMaRGRxost-25" style="edgeStyle=orthogonalEdgeStyle;rounded=0;orthogonalLoop=1;jettySize=auto;html=1;entryX=-0.002;entryY=0.69;entryDx=0;entryDy=0;entryPerimeter=0;" edge="1" parent="1" source="21ea969265ad0168-6" target="dTDsVJl3CDrMaRGRxost-6">
          <mxGeometry relative="1" as="geometry">
            <Array as="points">
              <mxPoint x="-360" y="1061" />
            </Array>
          </mxGeometry>
        </mxCell>
        <mxCell id="dTDsVJl3CDrMaRGRxost-37" style="edgeStyle=orthogonalEdgeStyle;rounded=0;orthogonalLoop=1;jettySize=auto;html=1;entryX=0;entryY=0.5;entryDx=0;entryDy=0;" edge="1" parent="1" source="21ea969265ad0168-6" target="dTDsVJl3CDrMaRGRxost-36">
          <mxGeometry relative="1" as="geometry">
            <mxPoint x="-510" y="1250" as="targetPoint" />
            <Array as="points">
              <mxPoint x="-530" y="1220" />
            </Array>
          </mxGeometry>
        </mxCell>
        <mxCell id="dTDsVJl3CDrMaRGRxost-42" style="edgeStyle=orthogonalEdgeStyle;rounded=0;orthogonalLoop=1;jettySize=auto;html=1;exitX=0.25;exitY=1;exitDx=0;exitDy=0;entryX=0.202;entryY=1.043;entryDx=0;entryDy=0;entryPerimeter=0;" edge="1" parent="1" source="21ea969265ad0168-6" target="dTDsVJl3CDrMaRGRxost-5">
          <mxGeometry relative="1" as="geometry">
            <mxPoint x="-900" y="1189.9999999999998" as="targetPoint" />
            <Array as="points">
              <mxPoint x="-570" y="1170" />
              <mxPoint x="-912" y="1170" />
            </Array>
          </mxGeometry>
        </mxCell>
        <mxCell id="dTDsVJl3CDrMaRGRxost-43" style="edgeStyle=orthogonalEdgeStyle;rounded=0;orthogonalLoop=1;jettySize=auto;html=1;entryX=0.385;entryY=0.99;entryDx=0;entryDy=0;entryPerimeter=0;" edge="1" parent="1" source="21ea969265ad0168-6" target="dTDsVJl3CDrMaRGRxost-5">
          <mxGeometry relative="1" as="geometry">
            <Array as="points">
              <mxPoint x="-550" y="1220" />
              <mxPoint x="-886" y="1220" />
            </Array>
          </mxGeometry>
        </mxCell>
        <mxCell id="21ea969265ad0168-6" value="0" style="swimlane;html=1;fontStyle=0;childLayout=stackLayout;horizontal=1;startSize=26;fillColor=#dae8fc;horizontalStack=0;resizeParent=1;resizeLast=0;collapsible=1;marginBottom=0;swimlaneFillColor=#ffffff;align=center;rounded=1;shadow=0;comic=0;labelBackgroundColor=none;strokeWidth=1;fontFamily=Verdana;fontSize=12;strokeColor=#6c8ebf;" parent="1" vertex="1">
          <mxGeometry x="-625" y="1010" width="100" height="150" as="geometry" />
        </mxCell>
        <mxCell id="dTDsVJl3CDrMaRGRxost-4" value="&lt;font style=&quot;font-size: 18px;&quot;&gt;Online Bike Renting System&lt;/font&gt;" style="text;html=1;strokeColor=none;fillColor=none;align=center;verticalAlign=middle;whiteSpace=wrap;rounded=0;" vertex="1" parent="21ea969265ad0168-6">
          <mxGeometry y="26" width="100" height="124" as="geometry" />
        </mxCell>
        <mxCell id="dTDsVJl3CDrMaRGRxost-24" value="Feedback" style="text;html=1;strokeColor=none;fillColor=none;align=center;verticalAlign=middle;whiteSpace=wrap;rounded=0;" vertex="1" parent="1">
          <mxGeometry x="-740" y="1070" width="60" height="30" as="geometry" />
        </mxCell>
        <mxCell id="dTDsVJl3CDrMaRGRxost-26" value="Feedback action" style="text;html=1;strokeColor=none;fillColor=none;align=center;verticalAlign=middle;whiteSpace=wrap;rounded=0;" vertex="1" parent="1">
          <mxGeometry x="-415" y="1035" width="110" height="30" as="geometry" />
        </mxCell>
        <mxCell id="dTDsVJl3CDrMaRGRxost-28" value="bike order" style="text;html=1;strokeColor=none;fillColor=none;align=center;verticalAlign=middle;whiteSpace=wrap;rounded=0;" vertex="1" parent="1">
          <mxGeometry x="-770" y="1100" width="60" height="30" as="geometry" />
        </mxCell>
        <mxCell id="dTDsVJl3CDrMaRGRxost-31" value="order details" style="text;html=1;strokeColor=none;fillColor=none;align=center;verticalAlign=middle;whiteSpace=wrap;rounded=0;" vertex="1" parent="1">
          <mxGeometry x="-795" y="1150" width="130" height="30" as="geometry" />
        </mxCell>
        <mxCell id="dTDsVJl3CDrMaRGRxost-34" value="Search Request" style="text;html=1;strokeColor=none;fillColor=none;align=center;verticalAlign=middle;whiteSpace=wrap;rounded=0;" vertex="1" parent="1">
          <mxGeometry x="-815" y="924" width="130" height="30" as="geometry" />
        </mxCell>
        <mxCell id="dTDsVJl3CDrMaRGRxost-39" style="edgeStyle=orthogonalEdgeStyle;rounded=0;orthogonalLoop=1;jettySize=auto;html=1;" edge="1" parent="1" source="dTDsVJl3CDrMaRGRxost-36">
          <mxGeometry relative="1" as="geometry">
            <mxPoint x="-460" y="1110" as="targetPoint" />
            <Array as="points">
              <mxPoint x="-260" y="1150" />
              <mxPoint x="-460" y="1150" />
            </Array>
          </mxGeometry>
        </mxCell>
        <mxCell id="dTDsVJl3CDrMaRGRxost-36" value="Payment Clearing House" style="rounded=0;whiteSpace=wrap;html=1;fillColor=#dae8fc;strokeColor=#6c8ebf;" vertex="1" parent="1">
          <mxGeometry x="-320" y="1190" width="120" height="60" as="geometry" />
        </mxCell>
        <mxCell id="dTDsVJl3CDrMaRGRxost-38" value="Payment" style="text;html=1;strokeColor=none;fillColor=none;align=center;verticalAlign=middle;whiteSpace=wrap;rounded=0;" vertex="1" parent="1">
          <mxGeometry x="-460" y="1230" width="60" height="30" as="geometry" />
        </mxCell>
        <mxCell id="dTDsVJl3CDrMaRGRxost-40" value="Payment authorization" style="text;html=1;strokeColor=none;fillColor=none;align=center;verticalAlign=middle;whiteSpace=wrap;rounded=0;" vertex="1" parent="1">
          <mxGeometry x="-440" y="1120" width="145" height="30" as="geometry" />
        </mxCell>
        <mxCell id="dTDsVJl3CDrMaRGRxost-41" value="Offer details" style="text;html=1;strokeColor=none;fillColor=none;align=center;verticalAlign=middle;whiteSpace=wrap;rounded=0;" vertex="1" parent="1">
          <mxGeometry x="-400" y="970" width="110" height="30" as="geometry" />
        </mxCell>
        <mxCell id="dTDsVJl3CDrMaRGRxost-44" value="Phone/ e-mail promotions" style="text;html=1;strokeColor=none;fillColor=none;align=center;verticalAlign=middle;whiteSpace=wrap;rounded=0;" vertex="1" parent="1">
          <mxGeometry x="-830" y="1190" width="175" height="30" as="geometry" />
        </mxCell>
        <mxCell id="dTDsVJl3CDrMaRGRxost-45" value="&lt;font style=&quot;font-size: 32px;&quot;&gt;&lt;b&gt;Context Level Diagram&lt;/b&gt;&lt;/font&gt;" style="text;html=1;strokeColor=none;fillColor=none;align=center;verticalAlign=middle;whiteSpace=wrap;rounded=0;" vertex="1" parent="1">
          <mxGeometry x="-1125" y="760" width="460" height="30" as="geometry" />
        </mxCell>
        <mxCell id="npHeWOLE0PFYQOl3Flqy-38" style="edgeStyle=orthogonalEdgeStyle;rounded=0;orthogonalLoop=1;jettySize=auto;html=1;entryX=0.216;entryY=0.01;entryDx=0;entryDy=0;entryPerimeter=0;" edge="1" parent="1">
          <mxGeometry relative="1" as="geometry">
            <Array as="points">
              <mxPoint x="-1925" y="305" />
              <mxPoint x="-1590" y="305" />
            </Array>
            <mxPoint x="-1924.9333333333334" y="435" as="sourcePoint" />
          </mxGeometry>
        </mxCell>
        <mxCell id="npHeWOLE0PFYQOl3Flqy-39" style="edgeStyle=orthogonalEdgeStyle;rounded=0;orthogonalLoop=1;jettySize=auto;html=1;entryX=0.001;entryY=0.121;entryDx=0;entryDy=0;entryPerimeter=0;" edge="1" parent="1">
          <mxGeometry relative="1" as="geometry">
            <Array as="points">
              <mxPoint x="-1915" y="335" />
              <mxPoint x="-1625" y="335" />
            </Array>
            <mxPoint x="-1914.9333333333334" y="435" as="sourcePoint" />
          </mxGeometry>
        </mxCell>
        <mxCell id="npHeWOLE0PFYQOl3Flqy-71" value="&lt;font style=&quot;font-size: 32px;&quot;&gt;&lt;b&gt;&amp;nbsp;Level 0 Diagram&lt;/b&gt;&lt;/font&gt;" style="text;html=1;strokeColor=none;fillColor=none;align=center;verticalAlign=middle;whiteSpace=wrap;rounded=0;" vertex="1" parent="1">
          <mxGeometry x="-2140" y="175" width="460" height="30" as="geometry" />
        </mxCell>
        <mxCell id="npHeWOLE0PFYQOl3Flqy-81" style="edgeStyle=orthogonalEdgeStyle;rounded=0;orthogonalLoop=1;jettySize=auto;html=1;entryX=-0.019;entryY=-0.014;entryDx=0;entryDy=0;entryPerimeter=0;" edge="1" parent="1" source="npHeWOLE0PFYQOl3Flqy-72" target="npHeWOLE0PFYQOl3Flqy-75">
          <mxGeometry relative="1" as="geometry">
            <Array as="points">
              <mxPoint x="-1960" y="308" />
              <mxPoint x="-1960" y="308" />
            </Array>
          </mxGeometry>
        </mxCell>
        <mxCell id="npHeWOLE0PFYQOl3Flqy-87" style="edgeStyle=orthogonalEdgeStyle;rounded=0;orthogonalLoop=1;jettySize=auto;html=1;entryX=0;entryY=0.645;entryDx=0;entryDy=0;entryPerimeter=0;" edge="1" parent="1" source="npHeWOLE0PFYQOl3Flqy-72" target="npHeWOLE0PFYQOl3Flqy-75">
          <mxGeometry relative="1" as="geometry">
            <Array as="points">
              <mxPoint x="-1950" y="390" />
              <mxPoint x="-1950" y="390" />
            </Array>
          </mxGeometry>
        </mxCell>
        <mxCell id="npHeWOLE0PFYQOl3Flqy-144" style="edgeStyle=orthogonalEdgeStyle;rounded=0;orthogonalLoop=1;jettySize=auto;html=1;entryX=0;entryY=0.113;entryDx=0;entryDy=0;entryPerimeter=0;" edge="1" parent="1" source="npHeWOLE0PFYQOl3Flqy-72" target="npHeWOLE0PFYQOl3Flqy-78">
          <mxGeometry relative="1" as="geometry">
            <Array as="points">
              <mxPoint x="-2030" y="760" />
            </Array>
          </mxGeometry>
        </mxCell>
        <mxCell id="npHeWOLE0PFYQOl3Flqy-148" style="edgeStyle=orthogonalEdgeStyle;rounded=0;orthogonalLoop=1;jettySize=auto;html=1;entryX=0;entryY=0.75;entryDx=0;entryDy=0;" edge="1" parent="1" source="npHeWOLE0PFYQOl3Flqy-72" target="npHeWOLE0PFYQOl3Flqy-78">
          <mxGeometry relative="1" as="geometry">
            <Array as="points">
              <mxPoint x="-2080" y="830" />
              <mxPoint x="-1790" y="830" />
            </Array>
          </mxGeometry>
        </mxCell>
        <mxCell id="npHeWOLE0PFYQOl3Flqy-72" value="User" style="rounded=0;whiteSpace=wrap;html=1;fillColor=#dae8fc;strokeColor=#6c8ebf;" vertex="1" parent="1">
          <mxGeometry x="-2130" y="294" width="120" height="130" as="geometry" />
        </mxCell>
        <mxCell id="npHeWOLE0PFYQOl3Flqy-74" value="1" style="swimlane;html=1;fontStyle=0;childLayout=stackLayout;horizontal=1;startSize=26;fillColor=#dae8fc;horizontalStack=0;resizeParent=1;resizeLast=0;collapsible=1;marginBottom=0;swimlaneFillColor=#ffffff;align=center;rounded=1;shadow=0;comic=0;labelBackgroundColor=none;strokeWidth=1;fontFamily=Verdana;fontSize=12;strokeColor=#6c8ebf;" vertex="1" parent="1">
          <mxGeometry x="-1790" y="284" width="150" height="150" as="geometry" />
        </mxCell>
        <mxCell id="npHeWOLE0PFYQOl3Flqy-75" value="&lt;font style=&quot;font-size: 18px;&quot;&gt;Search and Browse Bikes&lt;/font&gt;" style="text;html=1;strokeColor=none;fillColor=none;align=center;verticalAlign=middle;whiteSpace=wrap;rounded=0;" vertex="1" parent="npHeWOLE0PFYQOl3Flqy-74">
          <mxGeometry y="26" width="150" height="124" as="geometry" />
        </mxCell>
        <mxCell id="npHeWOLE0PFYQOl3Flqy-150" style="edgeStyle=orthogonalEdgeStyle;rounded=0;orthogonalLoop=1;jettySize=auto;html=1;entryX=0.142;entryY=1.003;entryDx=0;entryDy=0;entryPerimeter=0;" edge="1" parent="1" source="npHeWOLE0PFYQOl3Flqy-77" target="npHeWOLE0PFYQOl3Flqy-72">
          <mxGeometry relative="1" as="geometry">
            <mxPoint x="-2110" y="460" as="targetPoint" />
            <Array as="points">
              <mxPoint x="-2113" y="860" />
            </Array>
          </mxGeometry>
        </mxCell>
        <mxCell id="npHeWOLE0PFYQOl3Flqy-77" value="2" style="swimlane;html=1;fontStyle=0;childLayout=stackLayout;horizontal=1;startSize=26;fillColor=#dae8fc;horizontalStack=0;resizeParent=1;resizeLast=0;collapsible=1;marginBottom=0;swimlaneFillColor=#ffffff;align=center;rounded=1;shadow=0;comic=0;labelBackgroundColor=none;strokeWidth=1;fontFamily=Verdana;fontSize=12;strokeColor=#6c8ebf;" vertex="1" parent="1">
          <mxGeometry x="-1790" y="720" width="150" height="150" as="geometry" />
        </mxCell>
        <mxCell id="npHeWOLE0PFYQOl3Flqy-78" value="&lt;span style=&quot;font-size: 18px;&quot;&gt;Rent&lt;br&gt;Bikes&lt;br&gt;&lt;/span&gt;" style="text;html=1;strokeColor=none;fillColor=none;align=center;verticalAlign=middle;whiteSpace=wrap;rounded=0;" vertex="1" parent="npHeWOLE0PFYQOl3Flqy-77">
          <mxGeometry y="26" width="150" height="124" as="geometry" />
        </mxCell>
        <mxCell id="npHeWOLE0PFYQOl3Flqy-79" value="0" style="swimlane;html=1;fontStyle=0;childLayout=stackLayout;horizontal=1;startSize=26;fillColor=#dae8fc;horizontalStack=0;resizeParent=1;resizeLast=0;collapsible=1;marginBottom=0;swimlaneFillColor=#ffffff;align=center;rounded=1;shadow=0;comic=0;labelBackgroundColor=none;strokeWidth=1;fontFamily=Verdana;fontSize=12;strokeColor=#6c8ebf;" vertex="1" parent="1">
          <mxGeometry x="-1790" y="1030" width="170" height="180" as="geometry" />
        </mxCell>
        <mxCell id="npHeWOLE0PFYQOl3Flqy-80" value="&lt;span style=&quot;font-size: 18px;&quot;&gt;Manage/Improve&amp;nbsp;&lt;br&gt;System&amp;nbsp;&lt;br&gt;&lt;/span&gt;" style="text;html=1;strokeColor=none;fillColor=none;align=center;verticalAlign=middle;whiteSpace=wrap;rounded=0;" vertex="1" parent="npHeWOLE0PFYQOl3Flqy-79">
          <mxGeometry y="26" width="170" height="124" as="geometry" />
        </mxCell>
        <mxCell id="npHeWOLE0PFYQOl3Flqy-82" value="search request" style="text;html=1;strokeColor=none;fillColor=none;align=center;verticalAlign=middle;whiteSpace=wrap;rounded=0;" vertex="1" parent="1">
          <mxGeometry x="-1950" y="284" width="100" height="30" as="geometry" />
        </mxCell>
        <mxCell id="npHeWOLE0PFYQOl3Flqy-85" style="edgeStyle=orthogonalEdgeStyle;rounded=0;orthogonalLoop=1;jettySize=auto;html=1;" edge="1" parent="1" source="npHeWOLE0PFYQOl3Flqy-75" target="npHeWOLE0PFYQOl3Flqy-72">
          <mxGeometry relative="1" as="geometry">
            <Array as="points">
              <mxPoint x="-1960" y="350" />
              <mxPoint x="-1960" y="350" />
            </Array>
          </mxGeometry>
        </mxCell>
        <mxCell id="npHeWOLE0PFYQOl3Flqy-86" value="maching bike options" style="text;html=1;strokeColor=none;fillColor=none;align=center;verticalAlign=middle;whiteSpace=wrap;rounded=0;" vertex="1" parent="1">
          <mxGeometry x="-1965" y="320" width="130" height="30" as="geometry" />
        </mxCell>
        <mxCell id="npHeWOLE0PFYQOl3Flqy-88" value="bike selection" style="text;html=1;strokeColor=none;fillColor=none;align=center;verticalAlign=middle;whiteSpace=wrap;rounded=0;" vertex="1" parent="1">
          <mxGeometry x="-1955" y="365" width="90" height="30" as="geometry" />
        </mxCell>
        <mxCell id="npHeWOLE0PFYQOl3Flqy-142" style="edgeStyle=orthogonalEdgeStyle;rounded=0;orthogonalLoop=1;jettySize=auto;html=1;entryX=0.186;entryY=-0.016;entryDx=0;entryDy=0;entryPerimeter=0;" edge="1" parent="1" source="npHeWOLE0PFYQOl3Flqy-89" target="npHeWOLE0PFYQOl3Flqy-77">
          <mxGeometry relative="1" as="geometry">
            <Array as="points">
              <mxPoint x="-1928" y="620" />
              <mxPoint x="-1762" y="620" />
            </Array>
          </mxGeometry>
        </mxCell>
        <mxCell id="npHeWOLE0PFYQOl3Flqy-89" value="D6" style="html=1;dashed=0;whiteSpace=wrap;shape=mxgraph.dfd.dataStoreID;align=left;spacingLeft=3;points=[[0,0],[0.5,0],[1,0],[0,0.5],[1,0.5],[0,1],[0.5,1],[1,1]];fillColor=#dae8fc;strokeColor=#6c8ebf;" vertex="1" parent="1">
          <mxGeometry x="-2010" y="560" width="165" height="30" as="geometry" />
        </mxCell>
        <mxCell id="npHeWOLE0PFYQOl3Flqy-93" value="shopping card" style="text;html=1;strokeColor=none;fillColor=none;align=center;verticalAlign=middle;whiteSpace=wrap;rounded=0;" vertex="1" parent="1">
          <mxGeometry x="-1965" y="560" width="100" height="30" as="geometry" />
        </mxCell>
        <mxCell id="npHeWOLE0PFYQOl3Flqy-136" style="edgeStyle=orthogonalEdgeStyle;rounded=0;orthogonalLoop=1;jettySize=auto;html=1;entryX=0.75;entryY=1;entryDx=0;entryDy=0;" edge="1" parent="1" source="npHeWOLE0PFYQOl3Flqy-94" target="npHeWOLE0PFYQOl3Flqy-75">
          <mxGeometry relative="1" as="geometry">
            <Array as="points">
              <mxPoint x="-1277" y="500" />
              <mxPoint x="-1677" y="500" />
            </Array>
          </mxGeometry>
        </mxCell>
        <mxCell id="npHeWOLE0PFYQOl3Flqy-138" style="edgeStyle=orthogonalEdgeStyle;rounded=0;orthogonalLoop=1;jettySize=auto;html=1;entryX=0.75;entryY=0;entryDx=0;entryDy=0;" edge="1" parent="1" source="npHeWOLE0PFYQOl3Flqy-94" target="npHeWOLE0PFYQOl3Flqy-77">
          <mxGeometry relative="1" as="geometry" />
        </mxCell>
        <mxCell id="npHeWOLE0PFYQOl3Flqy-94" value="D1" style="html=1;dashed=0;whiteSpace=wrap;shape=mxgraph.dfd.dataStoreID;align=left;spacingLeft=3;points=[[0,0],[0.5,0],[1,0],[0,0.5],[1,0.5],[0,1],[0.5,1],[1,1]];fillColor=#dae8fc;strokeColor=#6c8ebf;" vertex="1" parent="1">
          <mxGeometry x="-1360" y="560" width="165" height="30" as="geometry" />
        </mxCell>
        <mxCell id="npHeWOLE0PFYQOl3Flqy-95" value="Available Bikes" style="text;html=1;strokeColor=none;fillColor=none;align=center;verticalAlign=middle;whiteSpace=wrap;rounded=0;" vertex="1" parent="1">
          <mxGeometry x="-1315" y="560" width="100" height="30" as="geometry" />
        </mxCell>
        <mxCell id="npHeWOLE0PFYQOl3Flqy-104" style="edgeStyle=orthogonalEdgeStyle;rounded=0;orthogonalLoop=1;jettySize=auto;html=1;entryX=1.004;entryY=0.041;entryDx=0;entryDy=0;entryPerimeter=0;" edge="1" parent="1" source="npHeWOLE0PFYQOl3Flqy-96" target="npHeWOLE0PFYQOl3Flqy-75">
          <mxGeometry relative="1" as="geometry" />
        </mxCell>
        <mxCell id="npHeWOLE0PFYQOl3Flqy-96" value="D3" style="html=1;dashed=0;whiteSpace=wrap;shape=mxgraph.dfd.dataStoreID;align=left;spacingLeft=3;points=[[0,0],[0.5,0],[1,0],[0,0.5],[1,0.5],[0,1],[0.5,1],[1,1]];fillColor=#dae8fc;strokeColor=#6c8ebf;" vertex="1" parent="1">
          <mxGeometry x="-1450" y="300" width="165" height="30" as="geometry" />
        </mxCell>
        <mxCell id="npHeWOLE0PFYQOl3Flqy-97" value="Targeted Promotions" style="text;html=1;strokeColor=none;fillColor=none;align=center;verticalAlign=middle;whiteSpace=wrap;rounded=0;" vertex="1" parent="1">
          <mxGeometry x="-1415" y="300" width="145" height="30" as="geometry" />
        </mxCell>
        <mxCell id="npHeWOLE0PFYQOl3Flqy-117" style="edgeStyle=orthogonalEdgeStyle;rounded=0;orthogonalLoop=1;jettySize=auto;html=1;entryX=0.333;entryY=1;entryDx=0;entryDy=0;entryPerimeter=0;" edge="1" parent="1" source="npHeWOLE0PFYQOl3Flqy-98" target="npHeWOLE0PFYQOl3Flqy-78">
          <mxGeometry relative="1" as="geometry">
            <Array as="points">
              <mxPoint x="-1740" y="930" />
            </Array>
          </mxGeometry>
        </mxCell>
        <mxCell id="npHeWOLE0PFYQOl3Flqy-122" style="edgeStyle=orthogonalEdgeStyle;rounded=0;orthogonalLoop=1;jettySize=auto;html=1;entryX=1;entryY=0.25;entryDx=0;entryDy=0;" edge="1" parent="1" source="npHeWOLE0PFYQOl3Flqy-98" target="npHeWOLE0PFYQOl3Flqy-80">
          <mxGeometry relative="1" as="geometry">
            <Array as="points">
              <mxPoint x="-1278" y="1117" />
            </Array>
          </mxGeometry>
        </mxCell>
        <mxCell id="npHeWOLE0PFYQOl3Flqy-98" value="D2" style="html=1;dashed=0;whiteSpace=wrap;shape=mxgraph.dfd.dataStoreID;align=left;spacingLeft=3;points=[[0,0],[0.5,0],[1,0],[0,0.5],[1,0.5],[0,1],[0.5,1],[1,1]];fillColor=#dae8fc;strokeColor=#6c8ebf;" vertex="1" parent="1">
          <mxGeometry x="-1360" y="870" width="165" height="70" as="geometry" />
        </mxCell>
        <mxCell id="npHeWOLE0PFYQOl3Flqy-99" value="Users" style="text;html=1;strokeColor=none;fillColor=none;align=center;verticalAlign=middle;whiteSpace=wrap;rounded=0;" vertex="1" parent="1">
          <mxGeometry x="-1327.5" y="890" width="100" height="30" as="geometry" />
        </mxCell>
        <mxCell id="npHeWOLE0PFYQOl3Flqy-100" value="D4" style="html=1;dashed=0;whiteSpace=wrap;shape=mxgraph.dfd.dataStoreID;align=left;spacingLeft=3;points=[[0,0],[0.5,0],[1,0],[0,0.5],[1,0.5],[0,1],[0.5,1],[1,1]];fillColor=#dae8fc;strokeColor=#6c8ebf;" vertex="1" parent="1">
          <mxGeometry x="-1450" y="365" width="165" height="30" as="geometry" />
        </mxCell>
        <mxCell id="npHeWOLE0PFYQOl3Flqy-152" style="edgeStyle=orthogonalEdgeStyle;rounded=0;orthogonalLoop=1;jettySize=auto;html=1;entryX=1;entryY=0.5;entryDx=0;entryDy=0;" edge="1" parent="1" source="npHeWOLE0PFYQOl3Flqy-101" target="npHeWOLE0PFYQOl3Flqy-98">
          <mxGeometry relative="1" as="geometry">
            <Array as="points">
              <mxPoint x="-1175" y="380" />
              <mxPoint x="-1175" y="905" />
            </Array>
          </mxGeometry>
        </mxCell>
        <mxCell id="npHeWOLE0PFYQOl3Flqy-101" value="User Location&amp;nbsp;" style="text;html=1;strokeColor=#6c8ebf;fillColor=#dae8fc;align=center;verticalAlign=middle;whiteSpace=wrap;rounded=0;" vertex="1" parent="1">
          <mxGeometry x="-1420" y="365" width="135" height="30" as="geometry" />
        </mxCell>
        <mxCell id="npHeWOLE0PFYQOl3Flqy-102" style="edgeStyle=orthogonalEdgeStyle;rounded=0;orthogonalLoop=1;jettySize=auto;html=1;" edge="1" parent="1" source="npHeWOLE0PFYQOl3Flqy-75" target="npHeWOLE0PFYQOl3Flqy-100">
          <mxGeometry relative="1" as="geometry">
            <Array as="points">
              <mxPoint x="-1590" y="380" />
              <mxPoint x="-1590" y="380" />
            </Array>
          </mxGeometry>
        </mxCell>
        <mxCell id="npHeWOLE0PFYQOl3Flqy-105" value="Promotions" style="text;html=1;strokeColor=none;fillColor=none;align=center;verticalAlign=middle;whiteSpace=wrap;rounded=0;" vertex="1" parent="1">
          <mxGeometry x="-1620" y="290" width="145" height="30" as="geometry" />
        </mxCell>
        <mxCell id="npHeWOLE0PFYQOl3Flqy-106" value="New location" style="text;html=1;strokeColor=none;fillColor=none;align=center;verticalAlign=middle;whiteSpace=wrap;rounded=0;" vertex="1" parent="1">
          <mxGeometry x="-1620" y="355" width="145" height="30" as="geometry" />
        </mxCell>
        <mxCell id="npHeWOLE0PFYQOl3Flqy-110" style="edgeStyle=orthogonalEdgeStyle;rounded=0;orthogonalLoop=1;jettySize=auto;html=1;entryX=0.5;entryY=0;entryDx=0;entryDy=0;" edge="1" parent="1" source="npHeWOLE0PFYQOl3Flqy-107" target="npHeWOLE0PFYQOl3Flqy-77">
          <mxGeometry relative="1" as="geometry">
            <Array as="points">
              <mxPoint x="-1715" y="680" />
            </Array>
          </mxGeometry>
        </mxCell>
        <mxCell id="npHeWOLE0PFYQOl3Flqy-107" value="Payment Clearing House" style="rounded=0;whiteSpace=wrap;html=1;fillColor=#dae8fc;strokeColor=#6c8ebf;" vertex="1" parent="1">
          <mxGeometry x="-1340" y="640" width="120" height="130" as="geometry" />
        </mxCell>
        <mxCell id="npHeWOLE0PFYQOl3Flqy-109" value="payment authorization" style="text;html=1;strokeColor=none;fillColor=none;align=center;verticalAlign=middle;whiteSpace=wrap;rounded=0;" vertex="1" parent="1">
          <mxGeometry x="-1609" y="650" width="145" height="30" as="geometry" />
        </mxCell>
        <mxCell id="npHeWOLE0PFYQOl3Flqy-112" style="edgeStyle=orthogonalEdgeStyle;rounded=0;orthogonalLoop=1;jettySize=auto;html=1;entryX=-0.035;entryY=0.924;entryDx=0;entryDy=0;entryPerimeter=0;" edge="1" parent="1" source="npHeWOLE0PFYQOl3Flqy-78" target="npHeWOLE0PFYQOl3Flqy-107">
          <mxGeometry relative="1" as="geometry">
            <Array as="points">
              <mxPoint x="-1570" y="760" />
              <mxPoint x="-1570" y="760" />
            </Array>
          </mxGeometry>
        </mxCell>
        <mxCell id="npHeWOLE0PFYQOl3Flqy-113" value="payment" style="text;html=1;strokeColor=none;fillColor=none;align=center;verticalAlign=middle;whiteSpace=wrap;rounded=0;" vertex="1" parent="1">
          <mxGeometry x="-1595" y="730" width="145" height="30" as="geometry" />
        </mxCell>
        <mxCell id="npHeWOLE0PFYQOl3Flqy-115" value="user info" style="text;html=1;strokeColor=none;fillColor=none;align=center;verticalAlign=middle;whiteSpace=wrap;rounded=0;" vertex="1" parent="1">
          <mxGeometry x="-1595" y="860" width="145" height="30" as="geometry" />
        </mxCell>
        <mxCell id="npHeWOLE0PFYQOl3Flqy-116" style="edgeStyle=orthogonalEdgeStyle;rounded=0;orthogonalLoop=1;jettySize=auto;html=1;entryX=0;entryY=0.286;entryDx=0;entryDy=0;entryPerimeter=0;" edge="1" parent="1" source="npHeWOLE0PFYQOl3Flqy-78" target="npHeWOLE0PFYQOl3Flqy-98">
          <mxGeometry relative="1" as="geometry">
            <Array as="points">
              <mxPoint x="-1715" y="890" />
            </Array>
          </mxGeometry>
        </mxCell>
        <mxCell id="npHeWOLE0PFYQOl3Flqy-118" value="user details" style="text;html=1;strokeColor=none;fillColor=none;align=center;verticalAlign=middle;whiteSpace=wrap;rounded=0;" vertex="1" parent="1">
          <mxGeometry x="-1595" y="900" width="145" height="30" as="geometry" />
        </mxCell>
        <mxCell id="npHeWOLE0PFYQOl3Flqy-124" style="edgeStyle=orthogonalEdgeStyle;rounded=0;orthogonalLoop=1;jettySize=auto;html=1;" edge="1" parent="1" source="npHeWOLE0PFYQOl3Flqy-119" target="npHeWOLE0PFYQOl3Flqy-80">
          <mxGeometry relative="1" as="geometry">
            <Array as="points">
              <mxPoint x="-2070" y="1117" />
            </Array>
          </mxGeometry>
        </mxCell>
        <mxCell id="npHeWOLE0PFYQOl3Flqy-125" style="edgeStyle=orthogonalEdgeStyle;rounded=0;orthogonalLoop=1;jettySize=auto;html=1;entryX=0.015;entryY=0.995;entryDx=0;entryDy=0;entryPerimeter=0;" edge="1" parent="1" source="npHeWOLE0PFYQOl3Flqy-119" target="npHeWOLE0PFYQOl3Flqy-80">
          <mxGeometry relative="1" as="geometry">
            <Array as="points">
              <mxPoint x="-1950" y="1179" />
            </Array>
          </mxGeometry>
        </mxCell>
        <mxCell id="npHeWOLE0PFYQOl3Flqy-128" style="edgeStyle=orthogonalEdgeStyle;rounded=0;orthogonalLoop=1;jettySize=auto;html=1;" edge="1" parent="1" source="npHeWOLE0PFYQOl3Flqy-119">
          <mxGeometry relative="1" as="geometry">
            <mxPoint x="-1715" y="1210" as="targetPoint" />
            <Array as="points">
              <mxPoint x="-1715" y="1250" />
            </Array>
          </mxGeometry>
        </mxCell>
        <mxCell id="npHeWOLE0PFYQOl3Flqy-119" value="Admin" style="rounded=0;whiteSpace=wrap;html=1;fillColor=#dae8fc;strokeColor=#6c8ebf;" vertex="1" parent="1">
          <mxGeometry x="-2130" y="1145" width="120" height="130" as="geometry" />
        </mxCell>
        <mxCell id="npHeWOLE0PFYQOl3Flqy-120" style="edgeStyle=orthogonalEdgeStyle;rounded=0;orthogonalLoop=1;jettySize=auto;html=1;" edge="1" parent="1" source="npHeWOLE0PFYQOl3Flqy-80" target="npHeWOLE0PFYQOl3Flqy-97">
          <mxGeometry relative="1" as="geometry">
            <Array as="points">
              <mxPoint x="-1100" y="1148" />
              <mxPoint x="-1100" y="310" />
            </Array>
          </mxGeometry>
        </mxCell>
        <mxCell id="npHeWOLE0PFYQOl3Flqy-121" value="new offers / promotions&amp;nbsp;" style="text;html=1;strokeColor=none;fillColor=none;align=center;verticalAlign=middle;whiteSpace=wrap;rounded=0;rotation=270;" vertex="1" parent="1">
          <mxGeometry x="-1150" y="940" width="145" height="30" as="geometry" />
        </mxCell>
        <mxCell id="npHeWOLE0PFYQOl3Flqy-123" value="user phone / e-mail" style="text;html=1;strokeColor=none;fillColor=none;align=center;verticalAlign=middle;whiteSpace=wrap;rounded=0;" vertex="1" parent="1">
          <mxGeometry x="-1475" y="1090" width="145" height="30" as="geometry" />
        </mxCell>
        <mxCell id="npHeWOLE0PFYQOl3Flqy-126" value="new bikes&amp;nbsp;" style="text;html=1;strokeColor=none;fillColor=none;align=center;verticalAlign=middle;whiteSpace=wrap;rounded=0;" vertex="1" parent="1">
          <mxGeometry x="-1995" y="1090" width="145" height="30" as="geometry" />
        </mxCell>
        <mxCell id="npHeWOLE0PFYQOl3Flqy-127" value="restroration of bikes" style="text;html=1;strokeColor=none;fillColor=none;align=center;verticalAlign=middle;whiteSpace=wrap;rounded=0;" vertex="1" parent="1">
          <mxGeometry x="-1987.5" y="1146" width="145" height="30" as="geometry" />
        </mxCell>
        <mxCell id="npHeWOLE0PFYQOl3Flqy-129" value="promotion decissions" style="text;html=1;strokeColor=none;fillColor=none;align=center;verticalAlign=middle;whiteSpace=wrap;rounded=0;" vertex="1" parent="1">
          <mxGeometry x="-1965" y="1220" width="145" height="30" as="geometry" />
        </mxCell>
        <mxCell id="npHeWOLE0PFYQOl3Flqy-131" style="edgeStyle=orthogonalEdgeStyle;rounded=0;orthogonalLoop=1;jettySize=auto;html=1;" edge="1" parent="1" target="npHeWOLE0PFYQOl3Flqy-119">
          <mxGeometry relative="1" as="geometry">
            <mxPoint x="-1690" y="1210" as="sourcePoint" />
            <Array as="points">
              <mxPoint x="-1690" y="1300" />
              <mxPoint x="-2070" y="1300" />
            </Array>
          </mxGeometry>
        </mxCell>
        <mxCell id="npHeWOLE0PFYQOl3Flqy-132" value="user feedbacks" style="text;html=1;strokeColor=none;fillColor=none;align=center;verticalAlign=middle;whiteSpace=wrap;rounded=0;" vertex="1" parent="1">
          <mxGeometry x="-1955" y="1300" width="145" height="30" as="geometry" />
        </mxCell>
        <mxCell id="npHeWOLE0PFYQOl3Flqy-133" style="edgeStyle=orthogonalEdgeStyle;rounded=0;orthogonalLoop=1;jettySize=auto;html=1;entryX=0;entryY=0.5;entryDx=0;entryDy=0;" edge="1" parent="1" source="npHeWOLE0PFYQOl3Flqy-80" target="npHeWOLE0PFYQOl3Flqy-72">
          <mxGeometry relative="1" as="geometry">
            <Array as="points">
              <mxPoint x="-2150" y="1090" />
              <mxPoint x="-2150" y="359" />
            </Array>
          </mxGeometry>
        </mxCell>
        <mxCell id="npHeWOLE0PFYQOl3Flqy-135" value="phone / e-mail promotions" style="text;html=1;strokeColor=none;fillColor=none;align=center;verticalAlign=middle;whiteSpace=wrap;rounded=0;rotation=270;" vertex="1" parent="1">
          <mxGeometry x="-2240" y="1000" width="145" height="30" as="geometry" />
        </mxCell>
        <mxCell id="npHeWOLE0PFYQOl3Flqy-137" value="requested bike" style="text;html=1;strokeColor=none;fillColor=none;align=center;verticalAlign=middle;whiteSpace=wrap;rounded=0;" vertex="1" parent="1">
          <mxGeometry x="-1530" y="470" width="100" height="30" as="geometry" />
        </mxCell>
        <mxCell id="npHeWOLE0PFYQOl3Flqy-139" value="renting price" style="text;html=1;strokeColor=none;fillColor=none;align=center;verticalAlign=middle;whiteSpace=wrap;rounded=0;" vertex="1" parent="1">
          <mxGeometry x="-1564" y="540" width="100" height="30" as="geometry" />
        </mxCell>
        <mxCell id="npHeWOLE0PFYQOl3Flqy-140" style="edgeStyle=orthogonalEdgeStyle;rounded=0;orthogonalLoop=1;jettySize=auto;html=1;entryX=0.863;entryY=0.033;entryDx=0;entryDy=0;entryPerimeter=0;" edge="1" parent="1" source="npHeWOLE0PFYQOl3Flqy-75" target="npHeWOLE0PFYQOl3Flqy-89">
          <mxGeometry relative="1" as="geometry">
            <Array as="points">
              <mxPoint x="-1715" y="460" />
              <mxPoint x="-1868" y="460" />
            </Array>
          </mxGeometry>
        </mxCell>
        <mxCell id="npHeWOLE0PFYQOl3Flqy-141" value="bike to rent" style="text;html=1;strokeColor=none;fillColor=none;align=center;verticalAlign=middle;whiteSpace=wrap;rounded=0;" vertex="1" parent="1">
          <mxGeometry x="-1850" y="460" width="100" height="30" as="geometry" />
        </mxCell>
        <mxCell id="npHeWOLE0PFYQOl3Flqy-143" value="bike to rent" style="text;html=1;strokeColor=none;fillColor=none;align=center;verticalAlign=middle;whiteSpace=wrap;rounded=0;" vertex="1" parent="1">
          <mxGeometry x="-1890" y="620" width="100" height="30" as="geometry" />
        </mxCell>
        <mxCell id="npHeWOLE0PFYQOl3Flqy-145" value="user account info" style="text;html=1;strokeColor=none;fillColor=none;align=center;verticalAlign=middle;whiteSpace=wrap;rounded=0;" vertex="1" parent="1">
          <mxGeometry x="-2010" y="730" width="100" height="30" as="geometry" />
        </mxCell>
        <mxCell id="npHeWOLE0PFYQOl3Flqy-146" style="edgeStyle=orthogonalEdgeStyle;rounded=0;orthogonalLoop=1;jettySize=auto;html=1;entryX=0;entryY=0.113;entryDx=0;entryDy=0;entryPerimeter=0;" edge="1" parent="1" source="npHeWOLE0PFYQOl3Flqy-72">
          <mxGeometry relative="1" as="geometry">
            <mxPoint x="-2030" y="460" as="sourcePoint" />
            <mxPoint x="-1790" y="796" as="targetPoint" />
            <Array as="points">
              <mxPoint x="-2056" y="796" />
            </Array>
          </mxGeometry>
        </mxCell>
        <mxCell id="npHeWOLE0PFYQOl3Flqy-147" value="user details" style="text;html=1;strokeColor=none;fillColor=none;align=center;verticalAlign=middle;whiteSpace=wrap;rounded=0;" vertex="1" parent="1">
          <mxGeometry x="-2010" y="770" width="100" height="30" as="geometry" />
        </mxCell>
        <mxCell id="npHeWOLE0PFYQOl3Flqy-149" value="payment info" style="text;html=1;strokeColor=none;fillColor=none;align=center;verticalAlign=middle;whiteSpace=wrap;rounded=0;" vertex="1" parent="1">
          <mxGeometry x="-2020" y="800" width="100" height="30" as="geometry" />
        </mxCell>
        <mxCell id="npHeWOLE0PFYQOl3Flqy-151" value="bike renting" style="text;html=1;strokeColor=none;fillColor=none;align=center;verticalAlign=middle;whiteSpace=wrap;rounded=0;" vertex="1" parent="1">
          <mxGeometry x="-2020" y="860" width="100" height="30" as="geometry" />
        </mxCell>
        <mxCell id="npHeWOLE0PFYQOl3Flqy-153" value="rent details history" style="text;html=1;strokeColor=none;fillColor=none;align=center;verticalAlign=middle;whiteSpace=wrap;rounded=0;rotation=270;" vertex="1" parent="1">
          <mxGeometry x="-1227.5" y="790" width="145" height="30" as="geometry" />
        </mxCell>
        <mxCell id="npHeWOLE0PFYQOl3Flqy-159" style="edgeStyle=orthogonalEdgeStyle;rounded=0;orthogonalLoop=1;jettySize=auto;html=1;" edge="1" parent="1" source="npHeWOLE0PFYQOl3Flqy-154">
          <mxGeometry relative="1" as="geometry">
            <mxPoint x="-1680" y="1030" as="targetPoint" />
            <Array as="points">
              <mxPoint x="-1680" y="985" />
              <mxPoint x="-1680" y="1030" />
            </Array>
          </mxGeometry>
        </mxCell>
        <mxCell id="npHeWOLE0PFYQOl3Flqy-154" value="D5" style="html=1;dashed=0;whiteSpace=wrap;shape=mxgraph.dfd.dataStoreID;align=left;spacingLeft=3;points=[[0,0],[0.5,0],[1,0],[0,0.5],[1,0.5],[0,1],[0.5,1],[1,1]];fillColor=#dae8fc;strokeColor=#6c8ebf;" vertex="1" parent="1">
          <mxGeometry x="-1950" y="970" width="165" height="30" as="geometry" />
        </mxCell>
        <mxCell id="npHeWOLE0PFYQOl3Flqy-155" value="rent history" style="text;html=1;strokeColor=none;fillColor=none;align=center;verticalAlign=middle;whiteSpace=wrap;rounded=0;" vertex="1" parent="1">
          <mxGeometry x="-1920" y="970" width="100" height="30" as="geometry" />
        </mxCell>
        <mxCell id="npHeWOLE0PFYQOl3Flqy-156" style="edgeStyle=orthogonalEdgeStyle;rounded=0;orthogonalLoop=1;jettySize=auto;html=1;entryX=0.122;entryY=-0.069;entryDx=0;entryDy=0;entryPerimeter=0;" edge="1" parent="1" source="npHeWOLE0PFYQOl3Flqy-78" target="npHeWOLE0PFYQOl3Flqy-154">
          <mxGeometry relative="1" as="geometry">
            <Array as="points">
              <mxPoint x="-1770" y="920" />
              <mxPoint x="-1930" y="920" />
            </Array>
          </mxGeometry>
        </mxCell>
        <mxCell id="npHeWOLE0PFYQOl3Flqy-157" value="rent details" style="text;html=1;strokeColor=none;fillColor=none;align=center;verticalAlign=middle;whiteSpace=wrap;rounded=0;" vertex="1" parent="1">
          <mxGeometry x="-1910" y="890" width="100" height="30" as="geometry" />
        </mxCell>
        <mxCell id="npHeWOLE0PFYQOl3Flqy-160" value="recent rentings" style="text;html=1;strokeColor=none;fillColor=none;align=center;verticalAlign=middle;whiteSpace=wrap;rounded=0;" vertex="1" parent="1">
          <mxGeometry x="-1770" y="960" width="100" height="30" as="geometry" />
        </mxCell>
        <mxCell id="npHeWOLE0PFYQOl3Flqy-163" style="edgeStyle=orthogonalEdgeStyle;rounded=0;orthogonalLoop=1;jettySize=auto;html=1;exitX=1;exitY=0;exitDx=0;exitDy=0;entryX=1;entryY=0.5;entryDx=0;entryDy=0;" edge="1" parent="1" source="npHeWOLE0PFYQOl3Flqy-80" target="npHeWOLE0PFYQOl3Flqy-94">
          <mxGeometry relative="1" as="geometry">
            <Array as="points">
              <mxPoint x="-1620" y="1050" />
              <mxPoint x="-1130" y="1050" />
              <mxPoint x="-1130" y="575" />
            </Array>
          </mxGeometry>
        </mxCell>
        <mxCell id="npHeWOLE0PFYQOl3Flqy-164" value="new bikes / updates" style="text;html=1;strokeColor=none;fillColor=none;align=center;verticalAlign=middle;whiteSpace=wrap;rounded=0;" vertex="1" parent="1">
          <mxGeometry x="-1485" y="1020" width="145" height="30" as="geometry" />
        </mxCell>
        <mxCell id="npHeWOLE0PFYQOl3Flqy-165" value="&lt;font style=&quot;font-size: 32px;&quot;&gt;&lt;b&gt;&amp;nbsp;Level 1 Diagram&lt;/b&gt;&lt;/font&gt;" style="text;html=1;strokeColor=none;fillColor=none;align=center;verticalAlign=middle;whiteSpace=wrap;rounded=0;" vertex="1" parent="1">
          <mxGeometry x="-2152.5" y="1510" width="460" height="30" as="geometry" />
        </mxCell>
        <mxCell id="npHeWOLE0PFYQOl3Flqy-168" value="2.1" style="swimlane;html=1;fontStyle=0;childLayout=stackLayout;horizontal=1;startSize=26;fillColor=#dae8fc;horizontalStack=0;resizeParent=1;resizeLast=0;collapsible=1;marginBottom=0;swimlaneFillColor=#ffffff;align=center;rounded=1;shadow=0;comic=0;labelBackgroundColor=none;strokeWidth=1;fontFamily=Verdana;fontSize=12;strokeColor=#6c8ebf;" vertex="1" parent="1">
          <mxGeometry x="-500" y="1810" width="150" height="150" as="geometry" />
        </mxCell>
        <mxCell id="npHeWOLE0PFYQOl3Flqy-169" value="&lt;font style=&quot;font-size: 18px;&quot;&gt;create user account&lt;/font&gt;" style="text;html=1;strokeColor=none;fillColor=none;align=center;verticalAlign=middle;whiteSpace=wrap;rounded=0;" vertex="1" parent="npHeWOLE0PFYQOl3Flqy-168">
          <mxGeometry y="26" width="150" height="124" as="geometry" />
        </mxCell>
        <mxCell id="npHeWOLE0PFYQOl3Flqy-171" value="User" style="swimlane;fontStyle=0;childLayout=stackLayout;horizontal=1;startSize=30;horizontalStack=0;resizeParent=1;resizeParentMax=0;resizeLast=0;collapsible=1;marginBottom=0;whiteSpace=wrap;html=1;fillColor=#dae8fc;strokeColor=#6c8ebf;" vertex="1" parent="1">
          <mxGeometry x="-1735" y="3570" width="140" height="260" as="geometry" />
        </mxCell>
        <mxCell id="npHeWOLE0PFYQOl3Flqy-172" value="User_ID" style="text;strokeColor=none;fillColor=none;align=left;verticalAlign=middle;spacingLeft=4;spacingRight=4;overflow=hidden;points=[[0,0.5],[1,0.5]];portConstraint=eastwest;rotatable=0;whiteSpace=wrap;html=1;" vertex="1" parent="npHeWOLE0PFYQOl3Flqy-171">
          <mxGeometry y="30" width="140" height="30" as="geometry" />
        </mxCell>
        <mxCell id="npHeWOLE0PFYQOl3Flqy-173" value="User_name" style="text;strokeColor=none;fillColor=none;align=left;verticalAlign=middle;spacingLeft=4;spacingRight=4;overflow=hidden;points=[[0,0.5],[1,0.5]];portConstraint=eastwest;rotatable=0;whiteSpace=wrap;html=1;" vertex="1" parent="npHeWOLE0PFYQOl3Flqy-171">
          <mxGeometry y="60" width="140" height="30" as="geometry" />
        </mxCell>
        <mxCell id="npHeWOLE0PFYQOl3Flqy-204" value="User_surname" style="text;html=1;strokeColor=none;fillColor=none;align=left;verticalAlign=middle;whiteSpace=wrap;rounded=0;" vertex="1" parent="npHeWOLE0PFYQOl3Flqy-171">
          <mxGeometry y="90" width="140" height="30" as="geometry" />
        </mxCell>
        <mxCell id="npHeWOLE0PFYQOl3Flqy-174" value="User_phone_number" style="text;strokeColor=none;fillColor=none;align=left;verticalAlign=middle;spacingLeft=4;spacingRight=4;overflow=hidden;points=[[0,0.5],[1,0.5]];portConstraint=eastwest;rotatable=0;whiteSpace=wrap;html=1;" vertex="1" parent="npHeWOLE0PFYQOl3Flqy-171">
          <mxGeometry y="120" width="140" height="20" as="geometry" />
        </mxCell>
        <mxCell id="npHeWOLE0PFYQOl3Flqy-205" value="User_mail" style="text;html=1;strokeColor=none;fillColor=none;align=left;verticalAlign=middle;whiteSpace=wrap;rounded=0;" vertex="1" parent="npHeWOLE0PFYQOl3Flqy-171">
          <mxGeometry y="140" width="140" height="30" as="geometry" />
        </mxCell>
        <mxCell id="npHeWOLE0PFYQOl3Flqy-179" value="&amp;nbsp;User passward" style="text;html=1;strokeColor=none;fillColor=none;align=left;verticalAlign=middle;whiteSpace=wrap;rounded=0;" vertex="1" parent="npHeWOLE0PFYQOl3Flqy-171">
          <mxGeometry y="170" width="140" height="30" as="geometry" />
        </mxCell>
        <mxCell id="npHeWOLE0PFYQOl3Flqy-206" value="User_city" style="text;html=1;strokeColor=none;fillColor=none;align=left;verticalAlign=middle;whiteSpace=wrap;rounded=0;" vertex="1" parent="npHeWOLE0PFYQOl3Flqy-171">
          <mxGeometry y="200" width="140" height="30" as="geometry" />
        </mxCell>
        <mxCell id="npHeWOLE0PFYQOl3Flqy-207" value="User_username" style="text;html=1;strokeColor=none;fillColor=none;align=left;verticalAlign=middle;whiteSpace=wrap;rounded=0;" vertex="1" parent="npHeWOLE0PFYQOl3Flqy-171">
          <mxGeometry y="230" width="140" height="30" as="geometry" />
        </mxCell>
        <mxCell id="npHeWOLE0PFYQOl3Flqy-185" value="Feedback" style="swimlane;fontStyle=0;childLayout=stackLayout;horizontal=1;startSize=30;horizontalStack=0;resizeParent=1;resizeParentMax=0;resizeLast=0;collapsible=1;marginBottom=0;whiteSpace=wrap;html=1;fillColor=#dae8fc;strokeColor=#6c8ebf;" vertex="1" parent="1">
          <mxGeometry x="-1510" y="3830" width="140" height="90" as="geometry" />
        </mxCell>
        <mxCell id="npHeWOLE0PFYQOl3Flqy-186" value="Feedback_ID" style="text;strokeColor=none;fillColor=none;align=left;verticalAlign=middle;spacingLeft=4;spacingRight=4;overflow=hidden;points=[[0,0.5],[1,0.5]];portConstraint=eastwest;rotatable=0;whiteSpace=wrap;html=1;" vertex="1" parent="npHeWOLE0PFYQOl3Flqy-185">
          <mxGeometry y="30" width="140" height="30" as="geometry" />
        </mxCell>
        <mxCell id="npHeWOLE0PFYQOl3Flqy-187" value="Feedback_Description" style="text;strokeColor=none;fillColor=none;align=left;verticalAlign=middle;spacingLeft=4;spacingRight=4;overflow=hidden;points=[[0,0.5],[1,0.5]];portConstraint=eastwest;rotatable=0;whiteSpace=wrap;html=1;" vertex="1" parent="npHeWOLE0PFYQOl3Flqy-185">
          <mxGeometry y="60" width="140" height="30" as="geometry" />
        </mxCell>
        <mxCell id="npHeWOLE0PFYQOl3Flqy-190" value="Bike" style="swimlane;fontStyle=0;childLayout=stackLayout;horizontal=1;startSize=30;horizontalStack=0;resizeParent=1;resizeParentMax=0;resizeLast=0;collapsible=1;marginBottom=0;whiteSpace=wrap;html=1;fillColor=#dae8fc;strokeColor=#6c8ebf;" vertex="1" parent="1">
          <mxGeometry x="-1730" y="4000" width="140" height="90" as="geometry" />
        </mxCell>
        <mxCell id="npHeWOLE0PFYQOl3Flqy-191" value="Bike_ID" style="text;strokeColor=none;fillColor=none;align=left;verticalAlign=middle;spacingLeft=4;spacingRight=4;overflow=hidden;points=[[0,0.5],[1,0.5]];portConstraint=eastwest;rotatable=0;whiteSpace=wrap;html=1;" vertex="1" parent="npHeWOLE0PFYQOl3Flqy-190">
          <mxGeometry y="30" width="140" height="30" as="geometry" />
        </mxCell>
        <mxCell id="npHeWOLE0PFYQOl3Flqy-192" value="Bike_price" style="text;strokeColor=none;fillColor=none;align=left;verticalAlign=middle;spacingLeft=4;spacingRight=4;overflow=hidden;points=[[0,0.5],[1,0.5]];portConstraint=eastwest;rotatable=0;whiteSpace=wrap;html=1;" vertex="1" parent="npHeWOLE0PFYQOl3Flqy-190">
          <mxGeometry y="60" width="140" height="30" as="geometry" />
        </mxCell>
        <mxCell id="npHeWOLE0PFYQOl3Flqy-194" value="Payment" style="swimlane;fontStyle=0;childLayout=stackLayout;horizontal=1;startSize=30;horizontalStack=0;resizeParent=1;resizeParentMax=0;resizeLast=0;collapsible=1;marginBottom=0;whiteSpace=wrap;html=1;fillColor=#dae8fc;strokeColor=#6c8ebf;" vertex="1" parent="1">
          <mxGeometry x="-1980" y="3730" width="140" height="140" as="geometry" />
        </mxCell>
        <mxCell id="npHeWOLE0PFYQOl3Flqy-195" value="Payment_reciept" style="text;strokeColor=none;fillColor=none;align=left;verticalAlign=middle;spacingLeft=4;spacingRight=4;overflow=hidden;points=[[0,0.5],[1,0.5]];portConstraint=eastwest;rotatable=0;whiteSpace=wrap;html=1;" vertex="1" parent="npHeWOLE0PFYQOl3Flqy-194">
          <mxGeometry y="30" width="140" height="30" as="geometry" />
        </mxCell>
        <mxCell id="npHeWOLE0PFYQOl3Flqy-196" value="Order_ID" style="text;strokeColor=none;fillColor=none;align=left;verticalAlign=middle;spacingLeft=4;spacingRight=4;overflow=hidden;points=[[0,0.5],[1,0.5]];portConstraint=eastwest;rotatable=0;whiteSpace=wrap;html=1;" vertex="1" parent="npHeWOLE0PFYQOl3Flqy-194">
          <mxGeometry y="60" width="140" height="30" as="geometry" />
        </mxCell>
        <mxCell id="npHeWOLE0PFYQOl3Flqy-197" value="User_ID" style="text;strokeColor=none;fillColor=none;align=left;verticalAlign=middle;spacingLeft=4;spacingRight=4;overflow=hidden;points=[[0,0.5],[1,0.5]];portConstraint=eastwest;rotatable=0;whiteSpace=wrap;html=1;" vertex="1" parent="npHeWOLE0PFYQOl3Flqy-194">
          <mxGeometry y="90" width="140" height="20" as="geometry" />
        </mxCell>
        <mxCell id="npHeWOLE0PFYQOl3Flqy-198" value="Rent_Price" style="text;html=1;strokeColor=none;fillColor=none;align=left;verticalAlign=middle;whiteSpace=wrap;rounded=0;" vertex="1" parent="npHeWOLE0PFYQOl3Flqy-194">
          <mxGeometry y="110" width="140" height="30" as="geometry" />
        </mxCell>
        <mxCell id="npHeWOLE0PFYQOl3Flqy-199" value="Rent" style="swimlane;fontStyle=0;childLayout=stackLayout;horizontal=1;startSize=30;horizontalStack=0;resizeParent=1;resizeParentMax=0;resizeLast=0;collapsible=1;marginBottom=0;whiteSpace=wrap;html=1;fillColor=#dae8fc;strokeColor=#6c8ebf;" vertex="1" parent="1">
          <mxGeometry x="-1980" y="3570" width="140" height="110" as="geometry" />
        </mxCell>
        <mxCell id="npHeWOLE0PFYQOl3Flqy-200" value="Rent_ID" style="text;strokeColor=none;fillColor=none;align=left;verticalAlign=middle;spacingLeft=4;spacingRight=4;overflow=hidden;points=[[0,0.5],[1,0.5]];portConstraint=eastwest;rotatable=0;whiteSpace=wrap;html=1;" vertex="1" parent="npHeWOLE0PFYQOl3Flqy-199">
          <mxGeometry y="30" width="140" height="30" as="geometry" />
        </mxCell>
        <mxCell id="npHeWOLE0PFYQOl3Flqy-201" value="Rent_date" style="text;strokeColor=none;fillColor=none;align=left;verticalAlign=middle;spacingLeft=4;spacingRight=4;overflow=hidden;points=[[0,0.5],[1,0.5]];portConstraint=eastwest;rotatable=0;whiteSpace=wrap;html=1;" vertex="1" parent="npHeWOLE0PFYQOl3Flqy-199">
          <mxGeometry y="60" width="140" height="30" as="geometry" />
        </mxCell>
        <mxCell id="npHeWOLE0PFYQOl3Flqy-202" value="Bike_ID" style="text;strokeColor=none;fillColor=none;align=left;verticalAlign=middle;spacingLeft=4;spacingRight=4;overflow=hidden;points=[[0,0.5],[1,0.5]];portConstraint=eastwest;rotatable=0;whiteSpace=wrap;html=1;" vertex="1" parent="npHeWOLE0PFYQOl3Flqy-199">
          <mxGeometry y="90" width="140" height="20" as="geometry" />
        </mxCell>
        <mxCell id="npHeWOLE0PFYQOl3Flqy-208" value="Targeted Promotion" style="swimlane;fontStyle=0;childLayout=stackLayout;horizontal=1;startSize=30;horizontalStack=0;resizeParent=1;resizeParentMax=0;resizeLast=0;collapsible=1;marginBottom=0;whiteSpace=wrap;html=1;fillColor=#dae8fc;strokeColor=#6c8ebf;" vertex="1" parent="1">
          <mxGeometry x="-1464" y="3570" width="140" height="170" as="geometry" />
        </mxCell>
        <mxCell id="npHeWOLE0PFYQOl3Flqy-209" value="Pro_code" style="text;strokeColor=none;fillColor=none;align=left;verticalAlign=middle;spacingLeft=4;spacingRight=4;overflow=hidden;points=[[0,0.5],[1,0.5]];portConstraint=eastwest;rotatable=0;whiteSpace=wrap;html=1;" vertex="1" parent="npHeWOLE0PFYQOl3Flqy-208">
          <mxGeometry y="30" width="140" height="30" as="geometry" />
        </mxCell>
        <mxCell id="npHeWOLE0PFYQOl3Flqy-210" value="User_number" style="text;strokeColor=none;fillColor=none;align=left;verticalAlign=middle;spacingLeft=4;spacingRight=4;overflow=hidden;points=[[0,0.5],[1,0.5]];portConstraint=eastwest;rotatable=0;whiteSpace=wrap;html=1;" vertex="1" parent="npHeWOLE0PFYQOl3Flqy-208">
          <mxGeometry y="60" width="140" height="30" as="geometry" />
        </mxCell>
        <mxCell id="npHeWOLE0PFYQOl3Flqy-211" value="User_mail" style="text;strokeColor=none;fillColor=none;align=left;verticalAlign=middle;spacingLeft=4;spacingRight=4;overflow=hidden;points=[[0,0.5],[1,0.5]];portConstraint=eastwest;rotatable=0;whiteSpace=wrap;html=1;" vertex="1" parent="npHeWOLE0PFYQOl3Flqy-208">
          <mxGeometry y="90" width="140" height="20" as="geometry" />
        </mxCell>
        <mxCell id="npHeWOLE0PFYQOl3Flqy-212" value="Bike_ID" style="text;html=1;strokeColor=none;fillColor=none;align=left;verticalAlign=middle;whiteSpace=wrap;rounded=0;" vertex="1" parent="npHeWOLE0PFYQOl3Flqy-208">
          <mxGeometry y="110" width="140" height="30" as="geometry" />
        </mxCell>
        <mxCell id="npHeWOLE0PFYQOl3Flqy-213" value="Pro_price" style="text;html=1;strokeColor=none;fillColor=none;align=left;verticalAlign=middle;whiteSpace=wrap;rounded=0;" vertex="1" parent="npHeWOLE0PFYQOl3Flqy-208">
          <mxGeometry y="140" width="140" height="30" as="geometry" />
        </mxCell>
        <mxCell id="npHeWOLE0PFYQOl3Flqy-220" value="" style="edgeStyle=entityRelationEdgeStyle;fontSize=12;html=1;endArrow=ERzeroToMany;startArrow=ERmandOne;rounded=0;entryX=1;entryY=0.5;entryDx=0;entryDy=0;exitX=0;exitY=0.5;exitDx=0;exitDy=0;" edge="1" parent="1" source="npHeWOLE0PFYQOl3Flqy-172" target="npHeWOLE0PFYQOl3Flqy-200">
          <mxGeometry width="100" height="100" relative="1" as="geometry">
            <mxPoint x="-1930" y="4070" as="sourcePoint" />
            <mxPoint x="-1830" y="3970" as="targetPoint" />
          </mxGeometry>
        </mxCell>
        <mxCell id="npHeWOLE0PFYQOl3Flqy-222" value="" style="edgeStyle=entityRelationEdgeStyle;fontSize=12;html=1;endArrow=ERzeroToMany;startArrow=ERmandOne;rounded=0;entryX=-0.017;entryY=0.112;entryDx=0;entryDy=0;exitX=1.01;exitY=0.076;exitDx=0;exitDy=0;exitPerimeter=0;entryPerimeter=0;" edge="1" parent="1" source="npHeWOLE0PFYQOl3Flqy-171" target="npHeWOLE0PFYQOl3Flqy-208">
          <mxGeometry width="100" height="100" relative="1" as="geometry">
            <mxPoint x="-1485" y="3520" as="sourcePoint" />
            <mxPoint x="-1590" y="3520" as="targetPoint" />
          </mxGeometry>
        </mxCell>
        <mxCell id="npHeWOLE0PFYQOl3Flqy-223" value="" style="edgeStyle=entityRelationEdgeStyle;fontSize=12;html=1;endArrow=ERzeroToMany;startArrow=ERmandOne;rounded=0;entryX=0;entryY=0.5;entryDx=0;entryDy=0;exitX=0.5;exitY=1;exitDx=0;exitDy=0;" edge="1" parent="1" source="npHeWOLE0PFYQOl3Flqy-198" target="npHeWOLE0PFYQOl3Flqy-191">
          <mxGeometry width="100" height="100" relative="1" as="geometry">
            <mxPoint x="-1810" y="3941" as="sourcePoint" />
            <mxPoint x="-1682" y="3940" as="targetPoint" />
          </mxGeometry>
        </mxCell>
        <mxCell id="npHeWOLE0PFYQOl3Flqy-225" value="" style="edgeStyle=entityRelationEdgeStyle;fontSize=12;html=1;endArrow=ERzeroToMany;startArrow=ERmandOne;rounded=0;exitX=1;exitY=0.5;exitDx=0;exitDy=0;entryX=-0.017;entryY=0.159;entryDx=0;entryDy=0;entryPerimeter=0;" edge="1" parent="1" source="npHeWOLE0PFYQOl3Flqy-191" target="npHeWOLE0PFYQOl3Flqy-208">
          <mxGeometry width="100" height="100" relative="1" as="geometry">
            <mxPoint x="-1165" y="3890" as="sourcePoint" />
            <mxPoint x="-1230" y="3840" as="targetPoint" />
          </mxGeometry>
        </mxCell>
        <mxCell id="npHeWOLE0PFYQOl3Flqy-228" value="" style="edgeStyle=entityRelationEdgeStyle;fontSize=12;html=1;endArrow=ERzeroToOne;startArrow=ERmandOne;rounded=0;entryX=-0.015;entryY=0.372;entryDx=0;entryDy=0;entryPerimeter=0;" edge="1" parent="1" source="npHeWOLE0PFYQOl3Flqy-171" target="npHeWOLE0PFYQOl3Flqy-185">
          <mxGeometry width="100" height="100" relative="1" as="geometry">
            <mxPoint x="-1600" y="3890" as="sourcePoint" />
            <mxPoint x="-1500" y="3790" as="targetPoint" />
          </mxGeometry>
        </mxCell>
        <mxCell id="npHeWOLE0PFYQOl3Flqy-229" value="" style="edgeStyle=entityRelationEdgeStyle;fontSize=12;html=1;endArrow=ERoneToMany;startArrow=ERzeroToMany;rounded=0;exitX=1;exitY=0.145;exitDx=0;exitDy=0;exitPerimeter=0;entryX=-0.004;entryY=0.161;entryDx=0;entryDy=0;entryPerimeter=0;" edge="1" parent="1" source="npHeWOLE0PFYQOl3Flqy-199" target="npHeWOLE0PFYQOl3Flqy-190">
          <mxGeometry width="100" height="100" relative="1" as="geometry">
            <mxPoint x="-1750" y="3960" as="sourcePoint" />
            <mxPoint x="-1650" y="3860" as="targetPoint" />
          </mxGeometry>
        </mxCell>
        <mxCell id="npHeWOLE0PFYQOl3Flqy-233" value="1.2" style="swimlane;html=1;fontStyle=0;childLayout=stackLayout;horizontal=1;startSize=26;fillColor=#dae8fc;horizontalStack=0;resizeParent=1;resizeLast=0;collapsible=1;marginBottom=0;swimlaneFillColor=#ffffff;align=center;rounded=1;shadow=0;comic=0;labelBackgroundColor=none;strokeWidth=1;fontFamily=Verdana;fontSize=12;strokeColor=#6c8ebf;" vertex="1" parent="1">
          <mxGeometry x="-500" y="2020" width="150" height="150" as="geometry" />
        </mxCell>
        <mxCell id="npHeWOLE0PFYQOl3Flqy-234" value="&lt;font style=&quot;font-size: 18px;&quot;&gt;login account&lt;/font&gt;" style="text;html=1;strokeColor=none;fillColor=none;align=center;verticalAlign=middle;whiteSpace=wrap;rounded=0;" vertex="1" parent="npHeWOLE0PFYQOl3Flqy-233">
          <mxGeometry y="26" width="150" height="124" as="geometry" />
        </mxCell>
        <mxCell id="npHeWOLE0PFYQOl3Flqy-235" value="2.3" style="swimlane;html=1;fontStyle=0;childLayout=stackLayout;horizontal=1;startSize=26;fillColor=#dae8fc;horizontalStack=0;resizeParent=1;resizeLast=0;collapsible=1;marginBottom=0;swimlaneFillColor=#ffffff;align=center;rounded=1;shadow=0;comic=0;labelBackgroundColor=none;strokeWidth=1;fontFamily=Verdana;fontSize=12;strokeColor=#6c8ebf;" vertex="1" parent="1">
          <mxGeometry x="-500" y="2220" width="150" height="150" as="geometry" />
        </mxCell>
        <mxCell id="npHeWOLE0PFYQOl3Flqy-236" value="&lt;span style=&quot;font-size: 18px;&quot;&gt;Process Renting payment&lt;/span&gt;" style="text;html=1;strokeColor=none;fillColor=none;align=center;verticalAlign=middle;whiteSpace=wrap;rounded=0;" vertex="1" parent="npHeWOLE0PFYQOl3Flqy-235">
          <mxGeometry y="26" width="150" height="124" as="geometry" />
        </mxCell>
        <mxCell id="npHeWOLE0PFYQOl3Flqy-244" style="edgeStyle=orthogonalEdgeStyle;rounded=0;orthogonalLoop=1;jettySize=auto;html=1;entryX=-0.033;entryY=0.113;entryDx=0;entryDy=0;entryPerimeter=0;" edge="1" parent="1" source="npHeWOLE0PFYQOl3Flqy-237" target="npHeWOLE0PFYQOl3Flqy-234">
          <mxGeometry relative="1" as="geometry" />
        </mxCell>
        <mxCell id="npHeWOLE0PFYQOl3Flqy-245" style="edgeStyle=orthogonalEdgeStyle;rounded=0;orthogonalLoop=1;jettySize=auto;html=1;entryX=0;entryY=0.5;entryDx=0;entryDy=0;" edge="1" parent="1" source="npHeWOLE0PFYQOl3Flqy-237" target="npHeWOLE0PFYQOl3Flqy-169">
          <mxGeometry relative="1" as="geometry">
            <Array as="points">
              <mxPoint x="-790" y="1950" />
              <mxPoint x="-615" y="1950" />
              <mxPoint x="-615" y="1898" />
            </Array>
          </mxGeometry>
        </mxCell>
        <mxCell id="npHeWOLE0PFYQOl3Flqy-277" style="edgeStyle=orthogonalEdgeStyle;rounded=0;orthogonalLoop=1;jettySize=auto;html=1;entryX=0;entryY=0.5;entryDx=0;entryDy=0;" edge="1" parent="1" source="npHeWOLE0PFYQOl3Flqy-237" target="npHeWOLE0PFYQOl3Flqy-270">
          <mxGeometry relative="1" as="geometry">
            <Array as="points">
              <mxPoint x="-790" y="2508" />
            </Array>
          </mxGeometry>
        </mxCell>
        <mxCell id="npHeWOLE0PFYQOl3Flqy-284" style="edgeStyle=orthogonalEdgeStyle;rounded=0;orthogonalLoop=1;jettySize=auto;html=1;entryX=0;entryY=0.5;entryDx=0;entryDy=0;" edge="1" parent="1" source="npHeWOLE0PFYQOl3Flqy-237" target="npHeWOLE0PFYQOl3Flqy-236">
          <mxGeometry relative="1" as="geometry">
            <Array as="points">
              <mxPoint x="-760" y="2160" />
              <mxPoint x="-615" y="2160" />
              <mxPoint x="-615" y="2308" />
            </Array>
          </mxGeometry>
        </mxCell>
        <mxCell id="npHeWOLE0PFYQOl3Flqy-237" value="User" style="rounded=0;whiteSpace=wrap;html=1;fillColor=#dae8fc;strokeColor=#6c8ebf;" vertex="1" parent="1">
          <mxGeometry x="-850" y="1995" width="120" height="130" as="geometry" />
        </mxCell>
        <mxCell id="npHeWOLE0PFYQOl3Flqy-248" style="edgeStyle=orthogonalEdgeStyle;rounded=0;orthogonalLoop=1;jettySize=auto;html=1;" edge="1" parent="1" source="npHeWOLE0PFYQOl3Flqy-239" target="npHeWOLE0PFYQOl3Flqy-233">
          <mxGeometry relative="1" as="geometry">
            <Array as="points">
              <mxPoint x="-128" y="2000" />
              <mxPoint x="-425" y="2000" />
            </Array>
          </mxGeometry>
        </mxCell>
        <mxCell id="npHeWOLE0PFYQOl3Flqy-239" value="D2" style="html=1;dashed=0;whiteSpace=wrap;shape=mxgraph.dfd.dataStoreID;align=left;spacingLeft=3;points=[[0,0],[0.5,0],[1,0],[0,0.5],[1,0.5],[0,1],[0.5,1],[1,1]];fillColor=#dae8fc;strokeColor=#6c8ebf;" vertex="1" parent="1">
          <mxGeometry x="-210" y="1840" width="165" height="30" as="geometry" />
        </mxCell>
        <mxCell id="npHeWOLE0PFYQOl3Flqy-240" value="Users" style="text;html=1;strokeColor=none;fillColor=none;align=center;verticalAlign=middle;whiteSpace=wrap;rounded=0;" vertex="1" parent="1">
          <mxGeometry x="-175" y="1840" width="145" height="30" as="geometry" />
        </mxCell>
        <mxCell id="npHeWOLE0PFYQOl3Flqy-250" style="edgeStyle=orthogonalEdgeStyle;rounded=0;orthogonalLoop=1;jettySize=auto;html=1;entryX=1.023;entryY=0.149;entryDx=0;entryDy=0;entryPerimeter=0;" edge="1" parent="1" source="npHeWOLE0PFYQOl3Flqy-241" target="npHeWOLE0PFYQOl3Flqy-234">
          <mxGeometry relative="1" as="geometry">
            <Array as="points">
              <mxPoint x="-117" y="2064" />
            </Array>
          </mxGeometry>
        </mxCell>
        <mxCell id="npHeWOLE0PFYQOl3Flqy-263" style="edgeStyle=orthogonalEdgeStyle;rounded=0;orthogonalLoop=1;jettySize=auto;html=1;entryX=1.006;entryY=0.352;entryDx=0;entryDy=0;entryPerimeter=0;" edge="1" parent="1" source="npHeWOLE0PFYQOl3Flqy-241" target="npHeWOLE0PFYQOl3Flqy-236">
          <mxGeometry relative="1" as="geometry">
            <Array as="points">
              <mxPoint x="-118" y="2160" />
              <mxPoint x="-275" y="2160" />
              <mxPoint x="-275" y="2290" />
            </Array>
          </mxGeometry>
        </mxCell>
        <mxCell id="npHeWOLE0PFYQOl3Flqy-241" value="D1" style="html=1;dashed=0;whiteSpace=wrap;shape=mxgraph.dfd.dataStoreID;align=left;spacingLeft=3;points=[[0,0],[0.5,0],[1,0],[0,0.5],[1,0.5],[0,1],[0.5,1],[1,1]];fillColor=#dae8fc;strokeColor=#6c8ebf;" vertex="1" parent="1">
          <mxGeometry x="-200" y="2095" width="165" height="30" as="geometry" />
        </mxCell>
        <mxCell id="npHeWOLE0PFYQOl3Flqy-242" value="Available Bikes" style="text;html=1;strokeColor=none;fillColor=none;align=center;verticalAlign=middle;whiteSpace=wrap;rounded=0;" vertex="1" parent="1">
          <mxGeometry x="-155" y="2095" width="100" height="30" as="geometry" />
        </mxCell>
        <mxCell id="npHeWOLE0PFYQOl3Flqy-243" value="user info" style="text;html=1;align=center;verticalAlign=middle;resizable=0;points=[];autosize=1;strokeColor=none;fillColor=none;" vertex="1" parent="1">
          <mxGeometry x="-740" y="1910" width="70" height="30" as="geometry" />
        </mxCell>
        <mxCell id="npHeWOLE0PFYQOl3Flqy-249" value="user details" style="text;html=1;align=center;verticalAlign=middle;resizable=0;points=[];autosize=1;strokeColor=none;fillColor=none;" vertex="1" parent="1">
          <mxGeometry x="-315" y="1965" width="80" height="30" as="geometry" />
        </mxCell>
        <mxCell id="npHeWOLE0PFYQOl3Flqy-251" value="requested bikes" style="text;html=1;align=center;verticalAlign=middle;resizable=0;points=[];autosize=1;strokeColor=none;fillColor=none;" vertex="1" parent="1">
          <mxGeometry x="-285" y="2030" width="110" height="30" as="geometry" />
        </mxCell>
        <mxCell id="npHeWOLE0PFYQOl3Flqy-252" value="D5" style="html=1;dashed=0;whiteSpace=wrap;shape=mxgraph.dfd.dataStoreID;align=left;spacingLeft=3;points=[[0,0],[0.5,0],[1,0],[0,0.5],[1,0.5],[0,1],[0.5,1],[1,1]];fillColor=#dae8fc;strokeColor=#6c8ebf;" vertex="1" parent="1">
          <mxGeometry x="-187.5" y="2690" width="165" height="30" as="geometry" />
        </mxCell>
        <mxCell id="npHeWOLE0PFYQOl3Flqy-253" value="Rent history" style="text;html=1;strokeColor=none;fillColor=none;align=center;verticalAlign=middle;whiteSpace=wrap;rounded=0;" vertex="1" parent="1">
          <mxGeometry x="-157.5" y="2690" width="95" height="28.5" as="geometry" />
        </mxCell>
        <mxCell id="npHeWOLE0PFYQOl3Flqy-256" style="edgeStyle=orthogonalEdgeStyle;rounded=0;orthogonalLoop=1;jettySize=auto;html=1;entryX=1.013;entryY=0.869;entryDx=0;entryDy=0;entryPerimeter=0;" edge="1" parent="1" source="npHeWOLE0PFYQOl3Flqy-234" target="npHeWOLE0PFYQOl3Flqy-237">
          <mxGeometry relative="1" as="geometry" />
        </mxCell>
        <mxCell id="npHeWOLE0PFYQOl3Flqy-257" value="user account details" style="text;html=1;align=center;verticalAlign=middle;resizable=0;points=[];autosize=1;strokeColor=none;fillColor=none;" vertex="1" parent="1">
          <mxGeometry x="-675" y="2020" width="130" height="30" as="geometry" />
        </mxCell>
        <mxCell id="npHeWOLE0PFYQOl3Flqy-258" value="matching bikes" style="text;html=1;align=center;verticalAlign=middle;resizable=0;points=[];autosize=1;strokeColor=none;fillColor=none;" vertex="1" parent="1">
          <mxGeometry x="-660" y="2110" width="100" height="30" as="geometry" />
        </mxCell>
        <mxCell id="npHeWOLE0PFYQOl3Flqy-260" value="payment info" style="text;html=1;align=center;verticalAlign=middle;resizable=0;points=[];autosize=1;strokeColor=none;fillColor=none;" vertex="1" parent="1">
          <mxGeometry x="-615" y="2270" width="90" height="30" as="geometry" />
        </mxCell>
        <mxCell id="npHeWOLE0PFYQOl3Flqy-262" value="payment confirmation" style="text;html=1;align=center;verticalAlign=middle;resizable=0;points=[];autosize=1;strokeColor=none;fillColor=none;" vertex="1" parent="1">
          <mxGeometry x="-760" y="2470" width="140" height="30" as="geometry" />
        </mxCell>
        <mxCell id="npHeWOLE0PFYQOl3Flqy-264" value="rent price" style="text;html=1;align=center;verticalAlign=middle;resizable=0;points=[];autosize=1;strokeColor=none;fillColor=none;" vertex="1" parent="1">
          <mxGeometry x="-235" y="2160" width="70" height="30" as="geometry" />
        </mxCell>
        <mxCell id="npHeWOLE0PFYQOl3Flqy-279" style="edgeStyle=orthogonalEdgeStyle;rounded=0;orthogonalLoop=1;jettySize=auto;html=1;" edge="1" parent="1" source="npHeWOLE0PFYQOl3Flqy-269" target="npHeWOLE0PFYQOl3Flqy-278">
          <mxGeometry relative="1" as="geometry" />
        </mxCell>
        <mxCell id="npHeWOLE0PFYQOl3Flqy-269" value="2.4" style="swimlane;html=1;fontStyle=0;childLayout=stackLayout;horizontal=1;startSize=26;fillColor=#dae8fc;horizontalStack=0;resizeParent=1;resizeLast=0;collapsible=1;marginBottom=0;swimlaneFillColor=#ffffff;align=center;rounded=1;shadow=0;comic=0;labelBackgroundColor=none;strokeWidth=1;fontFamily=Verdana;fontSize=12;strokeColor=#6c8ebf;" vertex="1" parent="1">
          <mxGeometry x="-500" y="2420" width="150" height="150" as="geometry" />
        </mxCell>
        <mxCell id="npHeWOLE0PFYQOl3Flqy-270" value="&lt;span style=&quot;font-size: 18px;&quot;&gt;Confirm Payment&lt;/span&gt;" style="text;html=1;strokeColor=none;fillColor=none;align=center;verticalAlign=middle;whiteSpace=wrap;rounded=0;" vertex="1" parent="npHeWOLE0PFYQOl3Flqy-269">
          <mxGeometry y="26" width="150" height="124" as="geometry" />
        </mxCell>
        <mxCell id="npHeWOLE0PFYQOl3Flqy-271" value="2.5" style="swimlane;html=1;fontStyle=0;childLayout=stackLayout;horizontal=1;startSize=26;fillColor=#dae8fc;horizontalStack=0;resizeParent=1;resizeLast=0;collapsible=1;marginBottom=0;swimlaneFillColor=#ffffff;align=center;rounded=1;shadow=0;comic=0;labelBackgroundColor=none;strokeWidth=1;fontFamily=Verdana;fontSize=12;strokeColor=#6c8ebf;" vertex="1" parent="1">
          <mxGeometry x="-500" y="2620" width="150" height="150" as="geometry" />
        </mxCell>
        <mxCell id="npHeWOLE0PFYQOl3Flqy-272" value="&lt;span style=&quot;font-size: 18px;&quot;&gt;Get Bike&lt;/span&gt;" style="text;html=1;strokeColor=none;fillColor=none;align=center;verticalAlign=middle;whiteSpace=wrap;rounded=0;" vertex="1" parent="npHeWOLE0PFYQOl3Flqy-271">
          <mxGeometry y="26" width="150" height="124" as="geometry" />
        </mxCell>
        <mxCell id="npHeWOLE0PFYQOl3Flqy-273" style="edgeStyle=orthogonalEdgeStyle;rounded=0;orthogonalLoop=1;jettySize=auto;html=1;entryX=0;entryY=0.5;entryDx=0;entryDy=0;" edge="1" parent="1" source="npHeWOLE0PFYQOl3Flqy-272" target="npHeWOLE0PFYQOl3Flqy-252">
          <mxGeometry relative="1" as="geometry" />
        </mxCell>
        <mxCell id="npHeWOLE0PFYQOl3Flqy-274" value="rent info" style="text;html=1;align=center;verticalAlign=middle;resizable=0;points=[];autosize=1;strokeColor=none;fillColor=none;" vertex="1" parent="1">
          <mxGeometry x="-290" y="2718.5" width="70" height="30" as="geometry" />
        </mxCell>
        <mxCell id="npHeWOLE0PFYQOl3Flqy-275" style="edgeStyle=orthogonalEdgeStyle;rounded=0;orthogonalLoop=1;jettySize=auto;html=1;entryX=0.25;entryY=1;entryDx=0;entryDy=0;" edge="1" parent="1" source="npHeWOLE0PFYQOl3Flqy-272" target="npHeWOLE0PFYQOl3Flqy-237">
          <mxGeometry relative="1" as="geometry" />
        </mxCell>
        <mxCell id="npHeWOLE0PFYQOl3Flqy-276" value="bike to user" style="text;html=1;align=center;verticalAlign=middle;resizable=0;points=[];autosize=1;strokeColor=none;fillColor=none;" vertex="1" parent="1">
          <mxGeometry x="-730" y="2670" width="90" height="30" as="geometry" />
        </mxCell>
        <mxCell id="npHeWOLE0PFYQOl3Flqy-282" style="edgeStyle=orthogonalEdgeStyle;rounded=0;orthogonalLoop=1;jettySize=auto;html=1;entryX=1.024;entryY=0.674;entryDx=0;entryDy=0;entryPerimeter=0;" edge="1" parent="1" source="npHeWOLE0PFYQOl3Flqy-278" target="npHeWOLE0PFYQOl3Flqy-236">
          <mxGeometry relative="1" as="geometry">
            <Array as="points">
              <mxPoint x="-245" y="2370" />
              <mxPoint x="-245" y="2330" />
            </Array>
          </mxGeometry>
        </mxCell>
        <mxCell id="npHeWOLE0PFYQOl3Flqy-278" value="&lt;font style=&quot;font-size: 17px;&quot;&gt;Payment Clearinghouse&lt;/font&gt;" style="rounded=0;whiteSpace=wrap;html=1;fillColor=#dae8fc;strokeColor=#6c8ebf;" vertex="1" parent="1">
          <mxGeometry x="-140" y="2340" width="120" height="130" as="geometry" />
        </mxCell>
        <mxCell id="npHeWOLE0PFYQOl3Flqy-280" value="payment&amp;nbsp;" style="text;html=1;align=center;verticalAlign=middle;resizable=0;points=[];autosize=1;strokeColor=none;fillColor=none;" vertex="1" parent="1">
          <mxGeometry x="-330" y="2460" width="70" height="30" as="geometry" />
        </mxCell>
        <mxCell id="npHeWOLE0PFYQOl3Flqy-283" value="payment&amp;nbsp;&lt;br&gt;authorization" style="text;html=1;align=center;verticalAlign=middle;resizable=0;points=[];autosize=1;strokeColor=none;fillColor=none;" vertex="1" parent="1">
          <mxGeometry x="-245" y="2330" width="90" height="40" as="geometry" />
        </mxCell>
        <mxCell id="npHeWOLE0PFYQOl3Flqy-285" style="edgeStyle=orthogonalEdgeStyle;rounded=0;orthogonalLoop=1;jettySize=auto;html=1;entryX=-0.001;entryY=0.774;entryDx=0;entryDy=0;entryPerimeter=0;" edge="1" parent="1" source="npHeWOLE0PFYQOl3Flqy-169" target="npHeWOLE0PFYQOl3Flqy-239">
          <mxGeometry relative="1" as="geometry" />
        </mxCell>
        <mxCell id="npHeWOLE0PFYQOl3Flqy-286" value="user info" style="text;html=1;align=center;verticalAlign=middle;resizable=0;points=[];autosize=1;strokeColor=none;fillColor=none;" vertex="1" parent="1">
          <mxGeometry x="-310" y="1830" width="70" height="30" as="geometry" />
        </mxCell>
        <mxCell id="npHeWOLE0PFYQOl3Flqy-289" style="edgeStyle=orthogonalEdgeStyle;rounded=0;orthogonalLoop=1;jettySize=auto;html=1;entryX=1;entryY=0.25;entryDx=0;entryDy=0;" edge="1" parent="1" source="npHeWOLE0PFYQOl3Flqy-287" target="npHeWOLE0PFYQOl3Flqy-236">
          <mxGeometry relative="1" as="geometry">
            <Array as="points">
              <mxPoint x="102" y="2277" />
            </Array>
          </mxGeometry>
        </mxCell>
        <mxCell id="npHeWOLE0PFYQOl3Flqy-287" value="D2" style="html=1;dashed=0;whiteSpace=wrap;shape=mxgraph.dfd.dataStoreID;align=left;spacingLeft=3;points=[[0,0],[0.5,0],[1,0],[0,0.5],[1,0.5],[0,1],[0.5,1],[1,1]];fillColor=#dae8fc;strokeColor=#6c8ebf;" vertex="1" parent="1">
          <mxGeometry x="20" y="1950" width="165" height="30" as="geometry" />
        </mxCell>
        <mxCell id="npHeWOLE0PFYQOl3Flqy-288" value="Shopping card" style="text;html=1;strokeColor=none;fillColor=none;align=center;verticalAlign=middle;whiteSpace=wrap;rounded=0;" vertex="1" parent="1">
          <mxGeometry x="55" y="1950" width="145" height="30" as="geometry" />
        </mxCell>
        <mxCell id="npHeWOLE0PFYQOl3Flqy-290" value="bike to rent" style="text;html=1;align=center;verticalAlign=middle;resizable=0;points=[];autosize=1;strokeColor=none;fillColor=none;" vertex="1" parent="1">
          <mxGeometry x="-117.5" y="2240" width="80" height="30" as="geometry" />
        </mxCell>
        <mxCell id="npHeWOLE0PFYQOl3Flqy-291" style="edgeStyle=orthogonalEdgeStyle;rounded=0;orthogonalLoop=1;jettySize=auto;html=1;entryX=0.5;entryY=0;entryDx=0;entryDy=0;" edge="1" parent="1" source="npHeWOLE0PFYQOl3Flqy-234" target="npHeWOLE0PFYQOl3Flqy-235">
          <mxGeometry relative="1" as="geometry" />
        </mxCell>
        <mxCell id="npHeWOLE0PFYQOl3Flqy-292" value="user details" style="text;html=1;align=center;verticalAlign=middle;resizable=0;points=[];autosize=1;strokeColor=none;fillColor=none;" vertex="1" parent="1">
          <mxGeometry x="-410" y="2180" width="80" height="30" as="geometry" />
        </mxCell>
        <mxCell id="npHeWOLE0PFYQOl3Flqy-293" style="edgeStyle=orthogonalEdgeStyle;rounded=0;orthogonalLoop=1;jettySize=auto;html=1;entryX=0.5;entryY=0;entryDx=0;entryDy=0;" edge="1" parent="1" source="npHeWOLE0PFYQOl3Flqy-236" target="npHeWOLE0PFYQOl3Flqy-269">
          <mxGeometry relative="1" as="geometry" />
        </mxCell>
        <mxCell id="npHeWOLE0PFYQOl3Flqy-294" value="renting details" style="text;html=1;align=center;verticalAlign=middle;resizable=0;points=[];autosize=1;strokeColor=none;fillColor=none;" vertex="1" parent="1">
          <mxGeometry x="-420" y="2380" width="100" height="30" as="geometry" />
        </mxCell>
        <mxCell id="npHeWOLE0PFYQOl3Flqy-295" style="edgeStyle=orthogonalEdgeStyle;rounded=0;orthogonalLoop=1;jettySize=auto;html=1;" edge="1" parent="1" source="npHeWOLE0PFYQOl3Flqy-270" target="npHeWOLE0PFYQOl3Flqy-271">
          <mxGeometry relative="1" as="geometry" />
        </mxCell>
        <mxCell id="npHeWOLE0PFYQOl3Flqy-296" value="renting details" style="text;html=1;align=center;verticalAlign=middle;resizable=0;points=[];autosize=1;strokeColor=none;fillColor=none;" vertex="1" parent="1">
          <mxGeometry x="-415" y="2580" width="100" height="30" as="geometry" />
        </mxCell>
        <mxCell id="npHeWOLE0PFYQOl3Flqy-297" value="" style="edgeStyle=orthogonalEdgeStyle;rounded=0;orthogonalLoop=1;jettySize=auto;html=1;" edge="1" parent="1" source="npHeWOLE0PFYQOl3Flqy-234" target="npHeWOLE0PFYQOl3Flqy-169">
          <mxGeometry relative="1" as="geometry" />
        </mxCell>
        <mxCell id="dTDsVJl3CDrMaRGRxost-46" value="2.2" style="edgeLabel;html=1;align=center;verticalAlign=middle;resizable=0;points=[];" vertex="1" connectable="0" parent="npHeWOLE0PFYQOl3Flqy-297">
          <mxGeometry x="-0.696" y="-1" relative="1" as="geometry">
            <mxPoint as="offset" />
          </mxGeometry>
        </mxCell>
      </root>
    </mxGraphModel>
  </diagram>
</mxfile>
